<?xml version="1.0" standalone="no"?>
<!DOCTYPE svg PUBLIC "-//W3C//DTD SVG 1.1//EN" "http://www.w3.org/Graphics/SVG/1.1/DTD/svg11.dtd" >
<svg xmlns="http://www.w3.org/2000/svg" xmlns:xlink="http://www.w3.org/1999/xlink" version="1.1">
<metadata></metadata>
<defs>
<font id="uni_sansbook_italic" horiz-adv-x="1241" >
<font-face units-per-em="2048" ascent="1548" descent="-500" />
<missing-glyph horiz-adv-x="448" />
<glyph unicode="&#xfb01;" horiz-adv-x="968" d="M-66 -305q85 54 105 194l172 1227q24 165 136.5 253.5t270.5 90.5l-16 -114q-109 0 -185 -61t-91 -169l-33 -237h229l-16 -115h-230l-122 -875q-26 -185 -166 -274zM631 0l147 1061h115l-148 -1061h-114zM776 1321q6 38 36.5 65t68.5 27t62 -27t18 -65q-4 -38 -35.5 -65 t-69.5 -27t-61.5 27t-18.5 65z" />
<glyph unicode="&#xfb02;" horiz-adv-x="1032" d="M-66 -305q85 54 105 194l172 1227q24 165 136.5 253.5t270.5 90.5l-16 -114q-109 0 -185 -61t-91 -169l-33 -237h229l-16 -115h-230l-122 -875q-26 -185 -166 -274zM657 315l160 1137h115l-160 -1137q-31 -221 178 -221l-16 -114q-155 0 -227 88t-50 247z" />
<glyph horiz-adv-x="0" />
<glyph horiz-adv-x="682" />
<glyph unicode=" "  horiz-adv-x="448" />
<glyph unicode="&#x09;" horiz-adv-x="448" />
<glyph unicode="&#xa0;" horiz-adv-x="448" />
<glyph unicode="!" horiz-adv-x="419" d="M35 78q6 41 38.5 69.5t73.5 28.5t65.5 -28.5t18.5 -69.5q-4 -41 -36.5 -69.5t-73.5 -28.5t-66 28.5t-20 69.5zM117 381l149 1069h121l-149 -1069h-121z" />
<glyph unicode="&#x22;" horiz-adv-x="647" d="M180 983l66 467h123l-101 -467h-88zM463 983l65 467h123l-102 -467h-86z" />
<glyph unicode="#" horiz-adv-x="1517" d="M39 455l41 114h332l141 326h-369l41 117h379l191 436h129l-191 -436h328l190 436h131l-192 -436h323l-47 -117h-329l-140 -326h369l-45 -114h-377l-199 -457h-129l201 457h-330l-198 -457h-129l200 457h-321zM541 569h327l142 326h-328z" />
<glyph unicode="$" horiz-adv-x="1183" d="M14 256l117 49q28 -89 118.5 -143.5t211.5 -65.5l86 611q-39 9 -66.5 15.5t-65 17t-61 20.5t-56 25t-49.5 31t-41.5 38.5t-32 46.5t-20 56t-7 67.5t7.5 79.5q20 111 96.5 195t180 127.5t222.5 52.5l29 209h100l-28 -209q155 -9 274 -80.5t154 -192.5l-115 -49 q-27 89 -118 142t-212 61l-77 -557q40 -8 69.5 -15t67.5 -17.5t65 -22t59 -27t53.5 -34t43 -42.5t33.5 -53t20 -63.5t6.5 -77t-10.5 -91.5q-22 -116 -102 -203t-188.5 -131t-233.5 -51l-31 -208h-100l30 208q-157 11 -276 84t-154 197zM267.5 1046.5q-0.5 -24.5 4.5 -45 t13.5 -37.5t22.5 -32t29 -27t36.5 -22t41.5 -18.5t46 -16t49 -13.5t53 -12l76 537q-135 -11 -237.5 -79t-127.5 -183q-6 -27 -6.5 -51.5zM561 96q143 10 252 79.5t137 189.5q8 36 8 67t-5.5 56t-18.5 46.5t-29 38.5t-39.5 32t-46.5 25.5t-54 21t-59 17.5t-63 15z" />
<glyph unicode="%" horiz-adv-x="1529" d="M88 -82l1249 1618l93 -61l-1248 -1618zM129 1063q26 176 125 281.5t233 105.5q142 0 208 -103t40 -288q-24 -178 -124 -283.5t-234 -105.5q-145 0 -209.5 101t-38.5 292zM250 1063q-20 -145 15 -210t130 -65q182 0 221 271q39 274 -147 274q-93 0 -145 -64t-74 -206z M825 385q24 178 123 282.5t234 104.5q141 0 207.5 -102.5t40.5 -288.5q-26 -178 -125 -282.5t-232 -104.5q-147 0 -211.5 100.5t-36.5 290.5zM944 385q-20 -145 15 -209.5t131 -64.5q182 0 221 270q20 139 -19 207.5t-129 68.5q-93 0 -146 -65t-73 -207z" />
<glyph unicode="&#x26;" horiz-adv-x="1269" d="M41 399q6 46 22.5 87.5t35 72.5t52 64.5t57.5 54t69.5 49.5t70.5 43t76 43q-34 48 -52.5 77.5t-42 75.5t-31 91t-1.5 90q21 146 138 232.5t265 86.5q131 0 215 -83.5t66 -213.5q-8 -58 -35 -108.5t-58 -85t-85.5 -71t-91.5 -56.5t-103 -53l299 -369l142 192l94 -49 l-168 -221l192 -260h-155l-117 156q-109 -124 -222 -188t-255 -64q-121 0 -212.5 49t-136.5 142.5t-28 215.5zM164 403q-18 -134 65.5 -217.5t223.5 -83.5q188 0 376 224l-342 411q-55 -30 -86 -48t-79 -52.5t-75 -65t-51.5 -75t-31.5 -93.5zM420 1151q-5 -36 4 -74.5 t33.5 -82t39 -66t44.5 -64.5q39 19 57.5 28t56.5 30t59 36t50 39.5t45.5 47.5t30.5 53.5t18 62.5q12 88 -38.5 144.5t-141.5 56.5q-95 0 -170 -60t-88 -151z" />
<glyph unicode="'" horiz-adv-x="372" d="M180 983l66 467h123l-90 -467h-99z" />
<glyph unicode="(" horiz-adv-x="530" d="M102 698q35 243 144 482t270 428l88 -66q-150 -161 -249 -390t-132 -454q-31 -229 8.5 -433t141.5 -415l-105 -61q-114 195 -156.5 434.5t-9.5 474.5z" />
<glyph unicode=")" horiz-adv-x="532" d="M-66 -209q151 162 251.5 391.5t131.5 452.5q66 467 -141 887l105 61q112 -192 152.5 -449.5t6.5 -498.5q-34 -243 -142 -481.5t-269 -427.5z" />
<glyph unicode="*" horiz-adv-x="907" d="M147 1145l43 94l289 -98l43 309h96l-43 -311l308 98l18 -98l-309 -92l151 -254l-84 -60l-157 256l-217 -256l-74 60l223 258z" />
<glyph unicode="+" horiz-adv-x="1202" d="M80 639l18 119h473l64 461h117l-64 -461h455l-19 -119h-454l-66 -465h-117l66 465h-473z" />
<glyph unicode="," horiz-adv-x="425" d="M-100 -283l200 467h144l-224 -467h-120z" />
<glyph unicode="-" horiz-adv-x="759" d="M117 555l16 119h506l-16 -119h-506z" />
<glyph unicode="." horiz-adv-x="413" d="M35 86q6 41 38.5 69.5t73.5 28.5t65.5 -28.5t18.5 -69.5q-4 -41 -36.5 -69.5t-73.5 -28.5t-66 28.5t-20 69.5z" />
<glyph unicode="/" horiz-adv-x="823" d="M-47 -37l842 1561l102 -37l-842 -1561z" />
<glyph unicode="0" horiz-adv-x="1284" d="M88 399l90 650q12 84 53 155t99 119.5t131 82t149 49t152 15.5t147 -15.5t134 -49t107.5 -82t65.5 -119.5t9 -155l-90 -650q-15 -104 -73 -186.5t-141.5 -132t-178 -75t-189.5 -25.5q-96 0 -183.5 25.5t-157 75t-104.5 132t-20 186.5zM209 399q-9 -64 8 -116t52 -85.5 t85 -56t103.5 -32t111.5 -9.5q57 0 113 9.5t113 32t101.5 55.5t76.5 85.5t41 116.5l90 650q11 80 -17 141t-83.5 94.5t-120.5 49.5t-138 16q-74 0 -144 -16t-135.5 -49.5t-110.5 -94.5t-56 -141z" />
<glyph unicode="1" horiz-adv-x="618" d="M84 1104l379 348h123l-203 -1452h-119l180 1286l-282 -254z" />
<glyph unicode="2" horiz-adv-x="1161" d="M2 94l817 686q92 77 141.5 161t49.5 155t-34.5 129t-109.5 91.5t-176 33.5q-140 0 -254 -54.5t-172 -154.5l-100 47q76 135 223.5 210t321.5 75q108 0 195.5 -34t141 -91t74.5 -135t6 -162.5t-73.5 -177t-157.5 -175.5l-684 -575h784l-16 -121h-950z" />
<glyph unicode="3" horiz-adv-x="1189" d="M10 246l117 53q33 -93 139 -146t238 -53q78 0 151 19.5t135 56.5t104.5 97.5t53.5 136.5q23 166 -60 245.5t-255 77.5h-121l16 113h121q294 0 328 244q10 67 -10 118.5t-63 81.5t-98.5 45t-121.5 15q-115 0 -219 -40.5t-158 -119.5l-94 53q68 109 198.5 168t276.5 59 q71 0 135 -14.5t118.5 -45t92 -74.5t54.5 -107t6 -139q-29 -204 -201 -297q218 -81 174 -385q-16 -105 -73 -189t-139 -135.5t-178 -79t-196 -27.5q-165 0 -296 70.5t-175 198.5z" />
<glyph unicode="4" horiz-adv-x="1177" d="M14 494l908 958h143l-135 -965h162l-15 -108h-162l-53 -379h-121l54 379h-729zM139 487h670l125 826z" />
<glyph unicode="5" horiz-adv-x="1198" d="M37 246l117 53q33 -91 134 -145t226 -54q105 0 200 35.5t165.5 111.5t85.5 179l12 90q11 77 -13 136t-75.5 94t-118.5 52t-147 17q-111 0 -204 -21t-202 -69l-63 -4l102 729h897l-16 -121h-777l-65 -459q186 73 346 70q98 -1 183.5 -26t153 -74t100.5 -132t20 -190 l-13 -94q-16 -106 -74 -192.5t-140.5 -140t-179.5 -82.5t-197 -29q-160 0 -286.5 70t-170.5 196z" />
<glyph unicode="6" horiz-adv-x="1273" d="M88 406l90 641q15 102 72.5 185t141 134t182.5 78t202 26q106 0 197.5 -28.5t160.5 -87.5t99 -142l-117 -55q-31 93 -128.5 143t-227.5 50q-110 0 -207.5 -32.5t-168.5 -104t-85 -169.5l-43 -311q80 95 196 138.5t246 43.5q103 -1 192.5 -28t157.5 -77.5t101 -132 t18 -183.5l-12 -88q-14 -102 -70 -184t-138.5 -133t-180 -78t-199.5 -27q-82 -1 -157 15.5t-138.5 51t-108 84t-65 119.5t-10.5 152zM209 408q-10 -74 17 -134t81 -96.5t125.5 -56t153.5 -19.5q108 0 203 33t163.5 104.5t81.5 168.5l13 84q11 74 -15 133t-78.5 96t-122 56.5 t-149.5 19.5q-110 0 -207.5 -32.5t-168.5 -103.5t-85 -169z" />
<glyph unicode="7" horiz-adv-x="1073" d="M86 0l905 1329h-841l16 123h954l31 -90l-928 -1362h-137z" />
<glyph unicode="8" horiz-adv-x="1267" d="M59 410q18 131 96 234.5t197 139.5l2 7q-80 34 -113.5 113.5t-19.5 176.5q11 75 45 139t84 109.5t112 77.5t129.5 47.5t137.5 15.5h39q87 0 164 -25t135 -72t86.5 -123t15.5 -169q-14 -97 -70 -176.5t-145 -113.5l-2 -7q110 -36 160.5 -139.5t32.5 -234.5 q-17 -105 -74 -188.5t-138.5 -135.5t-177.5 -79t-196 -27h-39q-100 0 -188 27t-154.5 79t-99 135.5t-19.5 188.5zM178 412q-10 -65 7 -119t52 -89.5t85 -59.5t104 -35t111 -11h38q72 0 143.5 18t137 54t111 98.5t57.5 143.5q11 76 -3.5 133t-46 90.5t-82.5 54.5t-105 28 t-123 7h-39q-69 0 -124.5 -7t-112.5 -28t-98 -54.5t-71 -90.5t-41 -133zM338 1081q-9 -61 4.5 -106t40.5 -70.5t71.5 -40.5t87.5 -19.5t99 -4.5h39q56 0 100.5 4.5t93 19.5t83 40.5t61 70.5t35.5 106q12 89 -29 152t-111.5 91t-160.5 28h-39q-140 0 -248.5 -70t-126.5 -201z " />
<glyph unicode="9" horiz-adv-x="1273" d="M72 238l116 55q31 -93 128 -143t227 -50q110 0 207.5 32.5t168.5 104t85 169.5l45 311q-81 -95 -198 -138.5t-247 -43.5q-103 1 -192.5 28t-157 77.5t-100.5 132t-19 183.5l12 88q14 102 70 184.5t138.5 134.5t180 79.5t199.5 27.5q103 1 194 -26.5t160 -79t103.5 -135 t21.5 -185.5l-90 -641q-14 -102 -71.5 -184.5t-141.5 -133.5t-183 -77.5t-202 -25.5q-163 0 -287 66.5t-167 189.5zM256 958q-11 -74 15 -133t78.5 -96t122 -56.5t149.5 -19.5q172 0 305.5 80t154.5 225l13 84q11 74 -16 134t-81 97.5t-125.5 57t-152.5 19.5 q-108 0 -203.5 -33.5t-164.5 -105.5t-83 -169z" />
<glyph unicode=":" horiz-adv-x="452" d="M57 117q4 41 37 69.5t74 28.5t66 -28.5t20 -69.5q-6 -41 -39 -70t-74 -29t-65.5 29t-18.5 70zM166 891q4 41 36.5 69.5t73.5 28.5t66 -28.5t20 -69.5q-6 -41 -38.5 -69.5t-73.5 -28.5t-65.5 28.5t-18.5 69.5z" />
<glyph unicode=";" horiz-adv-x="512" d="M-45 -283l184 467h160l-223 -467h-121zM182 860q4 41 37 69.5t74 28.5t66 -28.5t20 -69.5q-6 -41 -39 -69.5t-74 -28.5t-65.5 28.5t-18.5 69.5z" />
<glyph unicode="&#x3c;" horiz-adv-x="894" d="M55 571l13 99l782 430l-19 -137l-636 -342l540 -338l-18 -136z" />
<glyph unicode="=" horiz-adv-x="1095" d="M102 424l15 113h833l-14 -113h-834zM141 707l17 110h833l-16 -110h-834z" />
<glyph unicode="&#x3e;" horiz-adv-x="892" d="M43 147l18 136l635 338l-538 342l18 137l660 -430l-13 -99z" />
<glyph unicode="?" horiz-adv-x="980" d="M143 1292q81 87 195 132.5t233 45.5q89 0 167 -26.5t137 -76.5t86.5 -131.5t11.5 -182.5q-12 -80 -45 -147.5t-78.5 -115.5t-105 -85t-121.5 -59t-131 -34l-64 -333h-100l47 430q84 1 165 24.5t148 66.5t112.5 109.5t55.5 145.5q9 73 -12.5 130.5t-66 92.5t-102.5 53.5 t-124 18.5q-93 0 -180 -32.5t-146 -96.5h-2zM256 76q4 41 37.5 69.5t73.5 28.5t63.5 -28.5t18.5 -69.5q-6 -41 -37.5 -68.5t-71.5 -27.5t-65 27.5t-19 68.5z" />
<glyph unicode="@" horiz-adv-x="1585" d="M109 729q28 206 150.5 377.5t307 270t389.5 98.5q193 0 339 -79t215.5 -217t45.5 -307q-17 -121 -74 -233t-133.5 -189.5t-167.5 -124t-175 -46.5q-55 0 -85.5 35t-21.5 100h-4q-55 -56 -130.5 -95.5t-148.5 -39.5q-129 0 -188 83.5t-41 210.5q15 106 63 210t119 187.5 t169 135t204 51.5q74 0 126 -40.5t65 -125.5h4l65 127h121l-276 -581q-31 -66 -35 -97q-4 -20 5 -36.5t38 -16.5q68 0 155 73.5t155 188.5t83 223q16 109 -18 204.5t-104 161t-169 103t-211 37.5q-134 0 -261.5 -53.5t-223.5 -142.5t-161.5 -207.5t-82.5 -245.5 q-19 -132 15 -252.5t107.5 -208.5t185.5 -140t243 -52q110 0 211 37l35 -86q-125 -47 -260 -47q-160 0 -292.5 59t-216.5 159.5t-121 238.5t-15 292zM500 578q-11 -84 30.5 -137.5t118.5 -53.5q54 0 111.5 30.5t105 80t88 109.5t66.5 122t33 115q29 209 -133 209 q-84 1 -160.5 -45t-128.5 -118.5t-86 -154t-45 -157.5z" />
<glyph unicode="A" d="M-76 0l723 1450h176l322 -1450h-127l-107 483h-622l-238 -483h-127zM348 604h537l-162 756z" />
<glyph unicode="B" horiz-adv-x="1280" d="M74 0l202 1450h551q86 0 157 -23t122 -67t74 -116q15 -46 14 -98q0 -30 -4 -63q-31 -221 -201 -311q181 -66 180 -280q0 -42 -6 -89q-17 -109 -65 -188.5t-121 -125.5t-160.5 -67.5t-193.5 -21.5h-549zM211 121h430h15q162 0 261 61q103 64 125 224q5 37 5 69 q0 111 -64 165q-81 69 -250 69h-10h-430zM309 829h430q136 0 225.5 61.5t108.5 192.5q3 24 3 46q0 39 -10 70q-16 49 -53.5 76.5t-87.5 40.5t-114 13h-430z" />
<glyph unicode="C" horiz-adv-x="1208" d="M90 420l84 610q12 85 53 157.5t100.5 123.5t134.5 87.5t155.5 54t162.5 17.5q162 0 288.5 -67t168.5 -193l-117 -53v-2q-33 93 -133 144t-229 51q-108 0 -206 -34.5t-170.5 -109t-86.5 -176.5l-84 -610q-3 -22 -3 -42q0 -76 40 -134q52 -74 140 -109t196 -35 q129 0 243.5 51t173.5 144l103 -53q-80 -126 -227.5 -194t-311.5 -68q-103 0 -193.5 28t-159.5 82q-69 52 -103 138q-24 59 -24 129q0 31 5 63z" />
<glyph unicode="D" horiz-adv-x="1310" d="M74 0l202 1450h484q106 0 196.5 -25t161.5 -75q72 -48 106 -132q24 -58 23 -129q0 -30 -4 -63l-86 -604q-12 -86 -52 -157.5t-98.5 -119.5t-133 -81.5t-153.5 -48.5t-163 -15h-483zM211 121h362q82 0 158 17.5t141.5 52t109.5 94t54 137.5l86 604q3 23 3 44q0 52 -19 94 q-27 60 -83 95t-127 52.5t-153 17.5h-362z" />
<glyph unicode="E" horiz-adv-x="1161" d="M74 0l202 1450h910l-17 -121h-788l-78 -543h727l-16 -122h-727l-76 -543h788l-16 -121h-909z" />
<glyph unicode="F" horiz-adv-x="1136" d="M74 0l202 1450h908l-17 -121h-786l-82 -586h690l-18 -120h-690l-86 -623h-121z" />
<glyph unicode="G" horiz-adv-x="1296" d="M94 426l84 608q15 105 73.5 190t143 137.5t184.5 80.5t203 28q164 0 290.5 -66t168.5 -192l-117 -53q-22 62 -77.5 106t-128 64.5t-156.5 20.5q-108 0 -206 -34.5t-170.5 -109t-86.5 -176.5l-84 -606q-3 -23 -3 -44q0 -52 19 -97q27 -63 82 -102t126.5 -60t152.5 -21 q109 0 208.5 35t173 110.5t87.5 178.5l24 182h-444l16 121h566l-41 -301q-15 -107 -73.5 -194t-144 -141t-185.5 -82.5t-204 -28.5t-196 28.5t-161.5 82.5t-103.5 141q-25 61 -25 131q0 31 5 63z" />
<glyph unicode="H" horiz-adv-x="1409" d="M74 0l202 1450h121l-94 -666h846l94 666h121l-203 -1450h-121l93 664h-846l-92 -664h-121z" />
<glyph unicode="I" horiz-adv-x="442" d="M74 0l202 1450h121l-202 -1450h-121z" />
<glyph unicode="J" horiz-adv-x="1208" d="M-10 336l112 20q4 -68 36 -120t84 -82t114 -45t131 -15q103 0 195.5 35t161 110.5t83.5 178.5l129 911h-483l16 121h605l-146 -1032q-15 -105 -69.5 -190.5t-133.5 -138.5t-173 -81t-193 -28q-89 0 -170 22.5t-147 65t-107 112t-45 156.5z" />
<glyph unicode="K" horiz-adv-x="1257" d="M74 0l202 1450h121l-112 -797l923 797h156l-797 -698l590 -752h-156l-532 666l-207 -183l-67 -483h-121z" />
<glyph unicode="L" horiz-adv-x="1030" d="M74 0l202 1450h121l-186 -1329h725l-16 -121h-846z" />
<glyph unicode="M" horiz-adv-x="1642" d="M74 0l202 1450h177l331 -1096l637 1096h176l-202 -1450h-121l178 1282l-633 -1083h-114l-332 1083l-178 -1282h-121z" />
<glyph unicode="N" horiz-adv-x="1409" d="M74 0l202 1450h148l635 -1317l184 1317h121l-203 -1450h-180l-610 1264l-176 -1264h-121z" />
<glyph unicode="O" horiz-adv-x="1382" d="M90 426l84 598q15 107 76 194t150.5 141t195 82.5t215.5 28.5q111 0 208 -28.5t171 -82.5q76 -54 112 -141q26 -62 25 -133q0 -29 -4 -61l-84 -598q-15 -107 -76 -194t-150.5 -141t-195 -82.5t-215.5 -28.5t-207 28.5t-171.5 82.5t-111.5 141q-26 62 -26 134q0 29 4 60z M211 426q-3 -21 -3 -41q0 -54 22 -101q30 -64 88.5 -103t135.5 -60t164 -21q117 0 222.5 35t184 111t93.5 180l84 598q3 24 3 46q0 55 -21 101q-30 64 -90.5 102t-137.5 57.5t-165 19.5q-87 0 -168.5 -20t-151.5 -58.5t-117.5 -102.5t-58.5 -145z" />
<glyph unicode="P" horiz-adv-x="1251" d="M74 0l202 1450h547q231 0 344 -147q78 -100 77 -237q0 -25 -2 -51q-17 -169 -133 -297q-141 -157 -362 -173q-24 -2 -49 -2h-428l-75 -543h-121zM287 664h426q192 0 309 127q94 101 101 234v17q0 122 -79 202q-87 85 -237 85h-426z" />
<glyph unicode="Q" horiz-adv-x="1382" d="M90 426l84 598q15 107 76 194t150.5 141t195 82.5t215.5 28.5q111 0 208 -28.5t171.5 -82.5t111.5 -141q25 -62 25 -133q0 -30 -4 -61l-84 -598q-23 -163 -149 -276l81 -132l-104 -67l-78 125q-175 -96 -387 -96q-110 0 -207 28.5t-171.5 82.5t-111.5 141q-26 62 -26 134 q0 29 4 60zM211 426q-3 -21 -3 -41q0 -54 22 -101q29 -64 88 -103t136 -60t164 -21q182 0 312 68l-76 123l104 65l72 -112q73 76 88 182l84 598q3 24 3 46q0 55 -21 101q-30 64 -90.5 102t-137.5 57.5t-165 19.5q-87 0 -168.5 -20t-151.5 -58.5t-117.5 -102.5t-58.5 -145z " />
<glyph unicode="R" horiz-adv-x="1257" d="M74 0l202 1450h547q217 0 335 -104q96 -85 96 -244q0 -35 -5 -74q-16 -109 -65.5 -191t-124 -129.5t-162 -70.5t-188.5 -23h-4l399 -614h-146l-401 614h-276l-86 -614h-121zM295 725h428q177 0 279 69.5t126 233.5q5 34 5 64q1 112 -67 167q-86 70 -257 70h-428z" />
<glyph unicode="S" horiz-adv-x="1202" d="M23 260l114 49h2q20 -67 79.5 -115.5t138.5 -71t169 -22.5q100 0 188.5 27.5t156 89t87.5 148.5q9 38 9 70q1 35 -7 65q-6 26 -24.5 49t-35.5 39.5t-49 32t-55.5 25t-65 21t-67.5 17.5t-73 16q-92 20 -141 32.5t-122 44t-106 69.5t-53 104q-11 37 -11 80q0 34 7 72 q16 88 70 159.5t131 116.5t168 68.5t186 23.5q109 0 205 -29.5t169 -92t99 -150.5l-115 -49q-20 65 -78 111.5t-135 68t-164 21.5q-96 0 -182 -26.5t-151.5 -85.5t-83.5 -140q-7 -31 -7.5 -57.5t7.5 -48t16.5 -39.5t28.5 -33.5t35.5 -27t45 -22.5t49.5 -18t56 -15.5 t57.5 -13t61.5 -12.5q41 -8 73.5 -16t72 -19t70 -23.5t64 -29t58 -37t47.5 -45t37 -55.5q15 -30 23 -66q8 -34 8 -75q0 -46 -11 -97q-18 -93 -74 -165.5t-135 -115.5t-170.5 -65t-189.5 -22q-173 0 -308 73t-175 207z" />
<glyph unicode="T" horiz-adv-x="1140" d="M127 1329l16 121h1088l-17 -121h-483l-186 -1329h-121l186 1329h-483z" />
<glyph unicode="U" horiz-adv-x="1386" d="M123 432l141 1018h121l-141 -1018q-3 -23 -4 -45q0 -53 20 -99q26 -64 80.5 -104.5t125.5 -62t152 -21.5t159.5 21.5t144.5 62t111.5 105t56.5 143.5l141 1018h121l-142 -1018q-15 -109 -73.5 -197t-144 -142.5t-186 -83.5t-204.5 -29t-195.5 29t-161 83.5t-103.5 142.5 q-24 61 -24 132q0 32 5 65z" />
<glyph unicode="V" d="M125 1450h127l295 -1360l672 1360h127l-723 -1450h-179z" />
<glyph unicode="W" horiz-adv-x="1923" d="M141 1450h127l191 -1360l532 1170h117l205 -1170l571 1360h127l-622 -1450h-177l-188 1069l-489 -1069h-177z" />
<glyph unicode="X" horiz-adv-x="1165" d="M-74 0l598 723l-391 727h141l336 -621l510 621h144l-596 -727l395 -723h-145l-334 629l-512 -629h-146z" />
<glyph unicode="Y" horiz-adv-x="1138" d="M121 1450h141l318 -762l528 762h143l-630 -883l-78 -567h-121l78 567z" />
<glyph unicode="Z" horiz-adv-x="1171" d="M-31 92l1078 1237h-867l17 121h995l31 -92l-1078 -1237h883l-16 -121h-1018z" />
<glyph unicode="[" horiz-adv-x="509" d="M8 -272l256 1818h307l-16 -104h-184l-226 -1610h185l-15 -104h-307z" />
<glyph unicode="\" horiz-adv-x="817" d="M164 1487l112 37l404 -1561l-117 -37z" />
<glyph unicode="]" horiz-adv-x="509" d="M-59 -270l14 98h184l228 1622h-185l15 98h307l-256 -1818h-307z" />
<glyph unicode="^" horiz-adv-x="1093" d="M121 870l491 580h95l342 -580h-144l-262 463l-381 -463h-141z" />
<glyph unicode="_" horiz-adv-x="1280" d="M18 -178l17 115h1022l-17 -115h-1022z" />
<glyph unicode="`" horiz-adv-x="430" d="M229 1780h164l113 -232h-119z" />
<glyph unicode="a" horiz-adv-x="1058" d="M70 328l55 403q11 77 43.5 137.5t78 100t105.5 65t122.5 36.5t131.5 11q97 0 194.5 -25t172.5 -63l-137 -993h-103l-2 106q-58 -56 -148.5 -91t-183.5 -35q-73 0 -136 21t-112 62t-71 109q-14 43 -15 95q0 29 5 61zM186 336q-3 -22 -3 -42q0 -86 56 -134q69 -60 181 -60 q90 0 180.5 32.5t144.5 84.5l99 694q-103 56 -244 56q-65 0 -122.5 -12t-108.5 -38.5t-85 -73.5t-42 -110z" />
<glyph unicode="b" horiz-adv-x="1052" d="M57 51l197 1403h115l-62 -436q148 63 299 63h5q101 1 185 -37q86 -38 133 -120q36 -60 36 -135q0 -25 -4 -52l-60 -413q-11 -83 -54 -149.5t-105.5 -107.5t-135 -63t-149.5 -24q-203 0 -400 71zM182 131q106 -39 289 -39q112 0 205 66.5t110 175.5l58 403q3 21 3 40 q1 37 -11 67q-18 46 -55.5 71.5t-85 38t-103.5 13.5q-154 0 -299 -60z" />
<glyph unicode="c" horiz-adv-x="944" d="M66 324l57 413q12 83 56 150.5t107 108.5t137 63t150 22q115 0 206.5 -46.5t129.5 -135.5l-104 -61q-25 63 -92.5 96t-155.5 33q-75 0 -141.5 -23.5t-116.5 -76.5t-61 -126l-58 -415q-3 -19 -3 -36q-1 -84 63 -132q76 -58 194 -58q101 0 184.5 39t116.5 119l99 -47 q-56 -113 -170.5 -172t-245.5 -59q-76 0 -143.5 22t-119 63t-76.5 109q-17 46 -17 98q0 25 4 52z" />
<glyph unicode="d" horiz-adv-x="1052" d="M66 324l57 411q15 107 85 187q71 82 167 120q94 38 195 37h5q150 0 279 -63l61 438h115l-194 -1403q-216 -71 -420 -71q-77 2 -143.5 24t-117.5 63t-75 107q-17 46 -17 100q0 24 3 50zM182 319q-3 -19 -2 -37q0 -82 60 -130q74 -60 190 -60q185 0 301 39l109 778 q-128 58 -283 58q-75 0 -141.5 -23.5t-116 -76.5t-59.5 -126z" />
<glyph unicode="e" horiz-adv-x="991" d="M66 326l55 399q13 87 57.5 156.5t108.5 112t138.5 65t152.5 22.5q77 0 144.5 -22t117.5 -64q52 -42 76 -110q16 -46 16 -98q0 -26 -4 -54q-12 -87 -54.5 -154.5t-102.5 -107t-134.5 -62t-151.5 -23.5h-9q-72 0 -142 14q-74 16 -137 46l-17 -120q-2 -18 -3 -34 q-1 -38 13 -69q18 -45 57 -71t87 -39t102 -13q92 0 171 34.5t120 103.5l94 -52q-59 -99 -169.5 -152.5t-231.5 -53.5q-77 0 -145 22t-119.5 64t-76.5 109q-17 45 -17 98q0 26 4 53zM211 553q58 -24 127 -39q68 -16 148 -16q2 0 5 -1q77 0 142 19q67 19 117 74.5t63 142.5 q3 20 3 39q0 88 -62 136q-75 60 -193 59q-117 0 -212 -66.5t-113 -185.5z" />
<glyph unicode="f" horiz-adv-x="528" d="M-66 -305q85 54 105 194l172 1227q24 165 136.5 253.5t270.5 90.5l-16 -114q-109 0 -185 -61t-91 -169l-15 -108h230l-15 -103h-229l-143 -1016q-26 -185 -166 -274z" />
<glyph unicode="g" horiz-adv-x="1042" d="M25 -311l88 71q31 -50 98 -77t147 -27q123 0 216.5 59t111.5 170l25 158q-134 -63 -293 -63h-7q-73 0 -138 22q-68 22 -118.5 64t-74.5 108q-17 46 -17 99q0 24 3 49l57 419q16 108 85 186.5t161 115.5t194 38q79 0 187 -22.5t206 -65.5l-157 -1106q-12 -84 -54 -149 t-103.5 -104.5t-134.5 -59.5t-153 -20q-103 0 -191 35t-138 100zM180 324q-4 -22 -4 -42q0 -80 56 -130q71 -64 194 -64q154 3 299 70l109 760q-48 22 -125 37.5t-158 15.5q-114 0 -206 -60.5t-105 -167.5z" />
<glyph unicode="h" horiz-adv-x="1075" d="M53 0l203 1450h115l-64 -432q144 63 295 63h13q71 -1 133 -21q68 -22 119 -64q51 -44 75 -110q17 -46 17 -98q0 -24 -3 -49l-100 -739h-115l101 739v2q2 17 2 32q0 83 -64 133q-76 58 -192 61q-147 0 -297 -58l-123 -909h-115z" />
<glyph unicode="i" horiz-adv-x="397" d="M53 0l150 1061h114l-149 -1061h-115zM201 1321q6 38 36 65t68 27t62 -27q19 -22 19 -50q0 -7 -1 -15q-4 -38 -35 -65t-69 -27q-37 0 -61 27q-19 22 -20 52q0 6 1 13z" />
<glyph unicode="j" horiz-adv-x="397" d="M-229 -393q156 0 262.5 94t128.5 254l155 1106h-114l-156 -1106q-15 -109 -85 -171.5t-177 -62.5zM205 1321q6 38 36 65t68 27t62 -27q19 -22 19 -50q0 -7 -1 -15q-4 -38 -35 -65t-69 -27t-61 27q-20 22 -20 52q0 6 1 13z" />
<glyph unicode="k" horiz-adv-x="989" d="M53 0l203 1450h115l-133 -946l636 557h144l-543 -479l391 -582h-141l-340 500l-168 -148l-49 -352h-115z" />
<glyph unicode="l" horiz-adv-x="466" d="M92 315l156 1137h114l-155 -1137q-3 -26 -3 -50q0 -171 181 -171l-16 -114q-155 0 -227 88q-55 67 -55 176q0 34 5 71z" />
<glyph unicode="m" horiz-adv-x="1665" d="M49 0l139 991q79 40 176 65t189 25q224 0 315 -143q67 70 155 106.5t175 36.5q81 0 148.5 -22.5t116.5 -64.5t71 -112q14 -45 14 -98q0 -29 -4 -59l-100 -725h-117l100 725q3 24 3 45q0 37 -10 67q-16 48 -51 75.5t-81 41t-102 13.5q-95 0 -181.5 -53.5t-99.5 -143.5 l-108 -770h-113l109 770q2 12 2 23q0 49 -32 87q-39 46 -102.5 66.5t-140.5 20.5q-142 0 -227 -60l-127 -907h-117z" />
<glyph unicode="n" horiz-adv-x="1071" d="M49 0l139 997q256 84 418 84q76 -2 142 -24t116.5 -63t74.5 -107q16 -45 17 -98q0 -24 -4 -50l-102 -739h-115l103 739q3 19 3 36q0 83 -63 133q-76 60 -188 59q-145 0 -301 -62l-125 -905h-115z" />
<glyph unicode="o" horiz-adv-x="1017" d="M63 324l60 411q11 83 54.5 150.5t107 109.5t137.5 64t151 22t145 -22t119.5 -64t76.5 -109q17 -47 17 -101q0 -24 -3 -50l-60 -411q-12 -84 -55.5 -151t-106.5 -108t-137 -63t-151 -22t-145 22t-120 63t-77 109q-17 46 -17 98q0 25 4 52zM178 332q-2 -18 -3 -34 q-1 -38 13 -70q18 -46 57 -73t87 -41t102 -14q73 0 139 23t118 77.5t63 131.5l59 405q2 17 2 33q0 38 -13 70q-19 46 -57.5 73t-86.5 40.5t-101 13.5q-74 0 -139.5 -22.5t-117 -76.5t-62.5 -131z" />
<glyph unicode="p" horiz-adv-x="1052" d="M-4 -391l197 1401q216 71 419 71q76 -1 142.5 -23t118 -63.5t75.5 -108.5q17 -44 17 -96q0 -26 -4 -53l-58 -411q-24 -162 -153 -254t-299 -92q-146 0 -279 65l-61 -436h-115zM186 154q139 -60 283 -60q117 2 210 61.5t107 166.5l58 419q3 19 3 37q0 50 -25 89 q-34 53 -93 76.5t-133 23.5q-195 0 -301 -35z" />
<glyph unicode="q" horiz-adv-x="1052" d="M66 326l57 411q16 110 85.5 190t163 117t197.5 37q197 0 400 -73l-197 -1399h-115l62 436q-145 -62 -299 -65h-5q-101 0 -184 38q-85 38 -133 119q-36 61 -36 137q0 25 4 52zM182 322q-3 -19 -3 -36q0 -50 25 -89q35 -53 95 -77.5t135 -25.5q147 0 299 60l109 776 q-99 37 -289 37q-115 0 -207 -59.5t-106 -166.5z" />
<glyph unicode="r" horiz-adv-x="620" d="M47 0l100 739q12 87 58 155.5t110 107.5t131.5 59t131.5 20q23 0 77 -4l-16 -114q-34 6 -68 6q-46 0 -94 -12.5t-94.5 -37.5t-79.5 -72t-41 -108l-100 -739h-115z" />
<glyph unicode="s" horiz-adv-x="901" d="M10 199l94 55q93 -154 299 -154q46 0 88.5 9.5t80.5 30t64 57.5t32 86q2 14 2 28q0 25 -7 45q-11 32 -30.5 52t-53 35.5t-61 23t-65.5 14.5q-77 14 -128.5 30.5t-107.5 48.5q-55 32 -79 88q-16 38 -17 85q0 22 4 47q11 77 54 137t103.5 94.5t127 52t133.5 17.5 q85 0 159.5 -27t122.5 -79l-86 -86q-65 78 -211 78q-45 0 -89 -9t-88.5 -29t-75 -58.5t-37.5 -90.5q-1 -10 -2 -19q0 -29 12 -53q16 -32 35 -49t63 -33t63.5 -20.5t68.5 -13.5q6 -1 9 -2q53 -10 96 -23.5t85 -38t69 -56.5t40 -80q8 -30 8 -65q0 -21 -3 -44 q-21 -144 -135 -223.5t-258 -79.5q-129 0 -227.5 55.5t-151.5 163.5z" />
<glyph unicode="t" horiz-adv-x="534" d="M92 317l141 988h99l-21 -244h230l-15 -92h-229l-92 -652q-3 -24 -3 -45q0 -72 36 -123q46 -66 147 -67q15 0 51 4l-14 -102q-36 -4 -57 -4q-139 0 -217 91q-61 72 -60 183q0 30 4 63z" />
<glyph unicode="u" horiz-adv-x="1071" d="M92 324l103 737h114l-104 -742q-2 -17 -2 -33q0 -84 62 -132q74 -58 188 -60q140 0 301 64l127 903h114l-139 -998l-121 -34q-174 -49 -299 -49q-75 1 -141 23.5t-116 64.5t-74 108q-16 46 -16 98q0 24 3 50z" />
<glyph unicode="v" horiz-adv-x="966" d="M88 1061h121l203 -957l467 957h120l-520 -1061h-166z" />
<glyph unicode="w" horiz-adv-x="1478" d="M96 1061h121l150 -942l360 942h145l99 -942l411 942h121l-467 -1061h-164l-92 907l-348 -907h-164z" />
<glyph unicode="x" horiz-adv-x="946" d="M-47 0l438 530l-291 531h140l233 -449l354 449h140l-439 -531l291 -530h-139l-231 446l-357 -446h-139z" />
<glyph unicode="y" horiz-adv-x="1097" d="M51 -303l88 72q75 -102 256 -105h6q77 0 147 24q72 24 126 80.5t65 135.5l21 149q-122 -71 -305 -71q-107 0 -193.5 39.5t-135.5 122.5q-38 63 -38 142q0 24 4 50l101 725h118l-102 -729q-3 -19 -3 -36q0 -86 65 -138q78 -64 196 -64q158 0 309 70l125 897h117 l-162 -1157q-13 -87 -56.5 -155.5t-107 -110t-137.5 -63t-154 -21.5q-107 0 -201.5 37t-148.5 106z" />
<glyph unicode="z" horiz-adv-x="948" d="M-25 82l791 868h-631l17 111h718l58 -84l-776 -856h651l-17 -121h-749z" />
<glyph unicode="{" horiz-adv-x="563" d="M66 590l14 98q141 0 186 316l43 296q15 116 72 182t143 66h103l-15 -98h-75q-57 0 -76 -35.5t-31 -126.5l-47 -327q-9 -75 -31 -138t-47.5 -99.5t-46 -56.5t-33.5 -26v-4q12 -7 26 -26t30 -59t19 -97t-7 -138l-47 -335q-15 -75 -0.5 -114.5t73.5 -39.5h66l-14 -98h-103 q-85 0 -122.5 66t-22.5 181l41 299q45 314 -98 314z" />
<glyph unicode="|" horiz-adv-x="385" d="M-4 -365l268 1909h115l-268 -1909h-115z" />
<glyph unicode="}" horiz-adv-x="565" d="M-57 -270l14 98h66q59 0 80.5 35t33.5 119l47 335q10 74 32 136.5t47.5 99t45 57t33.5 27.5v4q-17 8 -35.5 40.5t-34 103.5t1.5 176l48 327q4 33 6 48.5t3 38.5t-3 33t-11.5 22t-21.5 16t-35 4h-76l15 98h102q85 0 122.5 -65.5t22.5 -182.5l-43 -296q-45 -316 101 -316 l-15 -98q-143 0 -188 -314l-41 -299q-15 -115 -72 -181t-143 -66h-102z" />
<glyph unicode="~" horiz-adv-x="1075" d="M109 561q122 184 282 184q43 0 82.5 -14.5t69 -34.5t57 -40.5t56.5 -35t57 -14.5q56 0 101.5 36t98.5 103l58 -61q-114 -188 -281 -188q-47 0 -92.5 22t-76.5 48.5t-72 48.5t-80 22q-56 0 -102 -35t-97 -100z" />
<glyph unicode="&#xa1;" horiz-adv-x="411" d="M-10 -455l151 1069h123l-151 -1069h-123zM158 983q4 41 36.5 69.5t73.5 28.5t66 -28.5t20 -69.5q-6 -41 -38.5 -69.5t-73.5 -28.5t-65.5 28.5t-18.5 69.5z" />
<glyph unicode="&#xa2;" horiz-adv-x="960" d="M66 338l53 389q15 100 75 176t141.5 115.5t176.5 48.5l27 190h94l-27 -188q103 -6 183 -52t114 -128l-104 -62q-21 56 -77.5 88.5t-131.5 38.5l-119 -843q88 6 160 47.5t104 113.5l96 -51q-52 -102 -154 -159.5t-222 -65.5l-27 -189h-94l26 189q-68 8 -125 33t-99.5 66.5 t-61.5 104t-8 138.5zM178 334q-14 -94 43.5 -151t155.5 -70l119 839q-101 -13 -175 -70t-85 -151z" />
<glyph unicode="&#xa3;" horiz-adv-x="1052" d="M0 0l14 100h213l84 607h-213l15 98h213l34 244q9 59 28.5 115t58 113.5t89.5 100t127.5 69t167.5 26.5q80 0 142.5 -27.5t120.5 -85.5l-93 -78q-37 43 -81.5 61.5t-110.5 18.5q-74 0 -136 -29t-101 -75t-62.5 -96t-30.5 -99l-37 -258h338l-14 -98h-338l-84 -607h502 l-15 -100h-831z" />
<glyph unicode="&#xa4;" horiz-adv-x="1265" d="M82 291l133 112q-103 130 -78 322q27 191 168 322l-100 112l80 76l100 -115q156 109 334 109q176 0 301 -109l133 115l59 -76l-133 -112q105 -133 78 -322q-24 -187 -168 -322l101 -112l-80 -76l-101 115q-156 -109 -331 -109q-179 0 -304 109l-133 -115zM248 723 q-23 -165 77.5 -281t262.5 -116q163 0 296 116t156 281q16 110 -24.5 203t-124.5 146.5t-191 53.5q-162 0 -294.5 -117.5t-157.5 -285.5z" />
<glyph unicode="&#xa5;" horiz-adv-x="1230" d="M162 1452h141l315 -778l531 778h143l-583 -819h307l-33 -90h-324l-16 -109h346l-33 -90h-325l-47 -344h-121l47 344h-344l31 90h325l17 109h-338l32 90h281z" />
<glyph unicode="&#xa6;" horiz-adv-x="411" d="M16 -295l101 717h119l-101 -717h-119zM162 729l100 717h119l-100 -717h-119z" />
<glyph unicode="&#xa7;" horiz-adv-x="968" d="M-20 -49l116 51q19 -87 90 -133.5t166 -46.5q100 0 188 56t101 149q8 56 -20 100.5t-78.5 76t-113 60.5t-124 62.5t-111 73.5t-75.5 102t-15 139q25 172 256 264q-154 101 -133 260q15 101 83 176t158 110.5t187 35.5q111 0 193.5 -48t105.5 -145l-116 -59 q-18 67 -73.5 102t-131.5 35q-99 0 -184 -56.5t-99 -150.5q-7 -53 20 -96t76 -73.5t109 -59.5t120 -62t107.5 -72.5t72.5 -99t15 -133.5q-25 -171 -221 -270q64 -41 96.5 -107t22.5 -145q-15 -105 -81 -184.5t-157 -118.5t-192 -39q-134 0 -231.5 62t-126.5 184zM233 645 q-11 -75 19 -115t98 -77l201 -105q71 36 132 93t69 118q5 36 -6 68.5t-35.5 58.5t-46 42.5t-50.5 33.5l-143 88q-219 -71 -238 -205z" />
<glyph unicode="&#xa8;" horiz-adv-x="575" d="M262 1663q4 35 32.5 59.5t63.5 24.5t56 -24.5t16 -59.5q-4 -35 -32.5 -59.5t-63.5 -24.5t-56 24.5t-16 59.5zM631 1663q4 35 32.5 59.5t63.5 24.5t56 -24.5t16 -59.5q-4 -35 -33 -59.5t-64 -24.5t-55.5 24.5t-15.5 59.5z" />
<glyph unicode="&#xa9;" horiz-adv-x="1705" d="M104 725q29 206 156.5 382t317.5 278t397 102q155 0 287 -60.5t219.5 -162.5t128 -243t18.5 -296t-102 -296t-196 -243t-265.5 -162.5t-304.5 -60.5t-287.5 60.5t-220.5 162.5t-129 243t-19 296zM225 725q-24 -174 41 -321.5t200.5 -233.5t309.5 -86t334 86t266.5 233.5 t130.5 321.5q25 174 -40 321.5t-201 233.5t-310 86t-333.5 -86t-266 -233.5t-131.5 -321.5zM444 571q-12 -83 13 -150.5t76.5 -108.5t119.5 -63t144 -22q130 0 244.5 59t170.5 169l-98 51q-35 -80 -118.5 -122t-182.5 -42q-75 0 -135 23.5t-95.5 76t-25.5 125.5l2 4l43 310 v4q11 73 61.5 125.5t117 76t141.5 23.5q88 0 155 -33t92 -96l105 61q-38 89 -129.5 136t-206.5 47q-76 0 -150 -22t-137.5 -63t-107.5 -108.5t-56 -150.5z" />
<glyph unicode="&#xaa;" horiz-adv-x="768" d="M139 977q10 62 40 106.5t75.5 68.5t95 35t107.5 11q79 0 151 -29l10 76q8 58 -36.5 87.5t-114.5 29.5q-51 0 -102.5 -17t-85.5 -53l-60 68q56 55 129 82.5t144 27.5q112 0 183.5 -59.5t55.5 -169.5l-65 -471q-148 -46 -306 -43q-111 2 -174.5 69.5t-46.5 180.5zM252 977 q-10 -67 26.5 -107.5t100.5 -42.5q98 0 184 17l33 233q-79 27 -156 27q-168 0 -188 -127z" />
<glyph unicode="&#xab;" horiz-adv-x="847" d="M70 604l338 416l90 -59l-293 -357l194 -356l-108 -60zM367 604l338 416l90 -59l-293 -357l194 -356l-108 -60z" />
<glyph unicode="&#xac;" horiz-adv-x="1236" d="M133 705l17 112h976l-67 -469h-113l51 357h-864z" />
<glyph unicode="&#xad;" horiz-adv-x="667" d="M53 436l19 119h506l-19 -119h-506z" />
<glyph unicode="&#xae;" horiz-adv-x="1705" d="M104 725q29 206 156.5 382t317.5 278t397 102q155 0 287 -60.5t219.5 -162.5t128 -243t18.5 -296t-102 -296t-196 -243t-265.5 -162.5t-304.5 -60.5t-287.5 60.5t-220.5 162.5t-129 243t-19 296zM221 725q-24 -175 41.5 -323.5t202 -235t311.5 -86.5t336 86.5t268 235 t131 323.5q25 175 -40 323.5t-201.5 235t-311.5 86.5t-336 -86.5t-268.5 -235t-132.5 -323.5zM528 289l125 878h314q147 0 214.5 -67.5t49.5 -188.5q-16 -115 -88 -182.5t-170 -83.5l211 -356h-125l-211 356h-160l-51 -356h-109zM702 743h144q52 0 92.5 6.5t81.5 23t67 51.5 t33 87q11 79 -41.5 118.5t-132.5 39.5h-198z" />
<glyph unicode="&#xaf;" horiz-adv-x="491" d="M195 1636l16 101h471l-16 -101h-471z" />
<glyph unicode="&#xb0;" horiz-adv-x="724" d="M166 1196q15 114 106 193t205 79t183.5 -79t54.5 -193q-17 -114 -109.5 -195t-204.5 -81q-114 0 -183 80.5t-52 195.5zM266 1194q-9 -71 35.5 -121.5t114.5 -50.5q71 0 128 51t66 121q10 70 -33 121t-114 51q-70 0 -128 -50.5t-69 -121.5z" />
<glyph unicode="&#xb1;" horiz-adv-x="1144" d="M74 195l16 112h881l-17 -112h-880zM147 776l17 117h385l51 367h117l-51 -367h395l-17 -117h-395l-53 -368h-117l53 368h-385z" />
<glyph unicode="&#xb2;" horiz-adv-x="839" d="M111 657l481 404q44 36 73 81t29 89q0 60 -47 96.5t-131 36.5q-157 0 -221 -109l-92 41q48 85 136 127.5t185 42.5q135 0 206 -63.5t71 -155.5q0 -68 -41.5 -137t-104.5 -123l-356 -301h426l-16 -104h-580z" />
<glyph unicode="&#xb3;" horiz-adv-x="800" d="M106 768l99 45l6 -16q18 -48 69.5 -77t110.5 -32q52 -3 110 16.5t97 59.5q33 36 39 86q10 68 -19 113q-48 51 -143 47h-65l10 82h65q29 0 65.5 14.5t61.5 36.5q36 26 43 84q6 48 -20 84q-32 42 -96.5 52t-130.5 -14t-101 -73l-10 -16l-80 47q41 79 120.5 115t162.5 40 q64 3 125 -18q60 -24 92 -64q50 -61 37 -153q-8 -53 -39 -98.5t-80 -69.5q126 -50 106 -209v-2q-19 -98 -88 -164q-53 -51 -129 -75t-153 -21q-89 5 -161 47.5t-97 116.5z" />
<glyph unicode="&#xb4;" horiz-adv-x="436" d="M207 1548l172 232h164l-217 -232h-119z" />
<glyph unicode="&#xb5;" horiz-adv-x="1073" d="M-25 -467l213 1516h123l-92 -660q-5 -47 -6.5 -91t10 -82.5t32.5 -67.5t61.5 -45.5t97.5 -16.5q144 0 250 100t133 287l80 576h122l-139 -1049h-119q2 27 5.5 63t5.5 56t2 28h-6q-50 -79 -142.5 -125.5t-206.5 -46.5q-154 0 -223 117l-80 -559h-121z" />
<glyph unicode="&#xb6;" horiz-adv-x="1155" d="M100 972q17 169 135 298q145 160 377 178q27 2 54 2h464l-239 -1708h-119l225 1610h-256l-225 -1610h-123l113 803q-222 0 -332 142q-91 118 -74 285z" />
<glyph unicode="&#xb7;" horiz-adv-x="448" d="M129 651q6 41 39 70t74 29t65.5 -29t18.5 -70t-39 -69.5t-74 -28.5t-65.5 28.5t-18.5 69.5z" />
<glyph unicode="&#xb8;" horiz-adv-x="491" d="M-23 -459l37 76q63 -35 144 -35q55 0 99 28.5t52 80.5q6 35 -7 58t-35.5 31t-49 6.5t-49.5 -11.5l-25 26l105 226h76l-74 -168q76 0 122.5 -46.5t33.5 -129.5q-9 -63 -51.5 -106t-94 -60t-106.5 -17q-97 0 -177 41z" />
<glyph unicode="&#xb9;" horiz-adv-x="491" d="M131 1223l242 237h98l-123 -868h-102l100 708l-145 -139z" />
<glyph unicode="&#xba;" horiz-adv-x="835" d="M152 983l34 231q13 82 68 142t128 87t153 27t146.5 -27t105.5 -87t26 -142l-35 -231q-13 -82 -68 -142t-127.5 -87t-152.5 -27t-146.5 27t-105.5 87t-26 142zM256 983q-8 -54 20.5 -90.5t71.5 -50t96 -13.5t99.5 13.5t84.5 50t46 90.5l35 231q8 54 -21 90.5t-72 50 t-96 13.5q-52 0 -98.5 -13.5t-84.5 -50t-46 -90.5z" />
<glyph unicode="&#xbb;" horiz-adv-x="847" d="M45 248l293 356l-195 357l107 59l223 -416l-340 -416zM342 248l293 356l-195 357l107 59l223 -416l-340 -416z" />
<glyph unicode="&#xbc;" horiz-adv-x="1503" d="M102 -12l1149 1532l86 -58l-1151 -1532zM135 1223l70 -62l145 139l-100 -708h102l123 868h-98zM721 309l53 -98h395l-28 -209h104l29 209h110l15 96h-111l78 565h-109zM846 307l405 434l-67 -434h-338z" />
<glyph unicode="&#xbd;" horiz-adv-x="1566" d="M61 -12l1149 1532l86 -58l-1151 -1532zM135 1223l70 -62l145 139l-100 -708h102l123 868h-98zM799 76l20 -76h580l14 104h-426l359 295q62 50 103.5 120.5t41.5 139.5q0 92 -76.5 156t-200.5 64q-97 0 -185 -42.5t-136 -127.5l90 -41q71 108 221 108q89 0 134.5 -39 t45.5 -94q0 -84 -102 -170z" />
<glyph unicode="&#xbe;" horiz-adv-x="1593" d="M80 768l6 -16q16 -49 53.5 -84.5t81.5 -51t77.5 -22t59.5 -6.5q84 0 154 26.5t113.5 70t67.5 96.5t24 108q0 126 -109 170q62 31 91.5 88t29.5 117q0 52 -21.5 91.5t-57.5 62t-76.5 33.5t-84.5 11q-31 0 -66 -6t-80 -20.5t-86.5 -48t-66.5 -80.5l80 -47l11 16 q30 43 83 66.5t109 23.5q75 0 119 -38.5t37 -100.5q-7 -59 -59 -97t-111 -38h-66l-10 -82h66q163 7 163 -125q0 -82 -63.5 -139.5t-167.5 -57.5q-57 0 -116.5 26.5t-80.5 82.5l-6 16zM276 -12l1149 1532l86 -58l-1151 -1532zM827 309l54 -98h395l-29 -209h105l28 209h90 l15 96h-90l78 565h-109zM952 307l406 434l-68 -434h-338z" />
<glyph unicode="&#xbf;" horiz-adv-x="970" d="M-25 8q15 100 61 179.5t113.5 131t144 83.5t163.5 47l63 333h101l-48 -430q-84 -1 -165 -24.5t-148 -66.5t-112.5 -109.5t-55.5 -145.5q-9 -73 12.5 -130.5t66 -92.5t102.5 -53.5t124 -18.5q93 0 180 32.5t146 96.5h2l80 -71q-81 -87 -195 -133t-233 -46 q-89 0 -167.5 26.5t-137 77t-86 132t-11.5 182.5zM500 985q6 41 37 68.5t71 27.5t65 -27.5t19 -68.5q-4 -41 -37 -69.5t-73 -28.5t-63.5 28.5t-18.5 69.5z" />
<glyph unicode="&#xc0;" d="M-76 0l723 1450h176l322 -1450h-127l-107 483h-622l-238 -483h-127zM348 604h537l-162 756zM543 1780h164l112 -232h-119z" />
<glyph unicode="&#xc1;" d="M-76 0l723 1450h176l322 -1450h-127l-107 483h-622l-238 -483h-127zM348 604h537l-162 756zM680 1548l172 232h164l-217 -232h-119z" />
<glyph unicode="&#xc2;" d="M-76 0l723 1450h176l322 -1450h-127l-107 483h-622l-238 -483h-127zM348 604h537l-162 756zM483 1548l244 232h135l178 -232h-129l-129 160l-168 -160h-131z" />
<glyph unicode="&#xc3;" d="M-76 0l723 1450h176l322 -1450h-127l-107 483h-622l-238 -483h-127zM348 604h537l-162 756zM500 1626q26 73 77.5 113.5t118.5 40.5q29 0 58 -15.5t49 -34t46 -34t48 -15.5q58 0 92 76l74 -31q-33 -70 -81.5 -109.5t-104.5 -39.5q-40 0 -75.5 24.5t-68.5 49t-65 24.5 q-50 0 -93 -78z" />
<glyph unicode="&#xc4;" d="M-76 0l723 1450h176l322 -1450h-127l-107 483h-622l-238 -483h-127zM348 604h537l-162 756zM524 1663q4 35 33 59.5t64 24.5t55.5 -24.5t15.5 -59.5q-4 -35 -32.5 -59.5t-63.5 -24.5t-56 24.5t-16 59.5zM852 1663q4 35 32.5 59.5t63.5 24.5t56 -24.5t16 -59.5 q-4 -35 -32.5 -59.5t-63.5 -24.5t-56 24.5t-16 59.5z" />
<glyph unicode="&#xc5;" d="M-76 0l721 1446q-41 25 -61 70t-13 98q11 78 76 136t144 58q78 0 125 -59t36 -137q-7 -52 -42 -98.5t-85 -71.5l320 -1442h-127l-107 483h-622l-238 -483h-127zM348 604h537l-162 756zM662 1612q-6 -43 19.5 -73t66.5 -30q42 0 75 31t39 74t-19 73.5t-67 30.5t-75 -31.5 t-39 -74.5z" />
<glyph unicode="&#xc6;" horiz-adv-x="1640" d="M-96 0l942 1450h821l-16 -121h-619l-78 -545h555l-16 -120h-555l-76 -543h619l-17 -121h-739l68 483h-441l-307 -483h-141zM430 604h379l104 750z" />
<glyph unicode="&#xc7;" horiz-adv-x="1208" d="M90 420l84 610q12 85 53 157.5t100.5 123.5t134.5 87.5t155.5 54t162.5 17.5q162 0 288.5 -67t168.5 -193l-117 -53v-2q-33 93 -133 144t-229 51q-108 0 -206 -34.5t-170.5 -109t-86.5 -176.5l-84 -610q-14 -102 37.5 -176.5t139.5 -109t196 -34.5q129 0 243.5 51 t173.5 144l103 -53q-75 -118 -210 -185t-290 -75l-53 -123q76 0 122.5 -46.5t33.5 -129.5q-9 -63 -51.5 -106t-94 -60t-106.5 -17q-96 0 -176 41l36 76q63 -35 144 -35q55 0 99 28.5t52 80.5q6 35 -7 58t-35.5 31t-49 6.5t-49.5 -11.5l-25 26l84 179q-97 5 -181 36 t-147.5 84t-93.5 136t-16 184z" />
<glyph unicode="&#xc8;" horiz-adv-x="1161" d="M74 0l202 1450h910l-17 -121h-788l-78 -543h727l-16 -122h-727l-76 -543h788l-16 -121h-909zM532 1780h164l113 -232h-119z" />
<glyph unicode="&#xc9;" horiz-adv-x="1161" d="M74 0l202 1450h910l-17 -121h-788l-78 -543h727l-16 -122h-727l-76 -543h788l-16 -121h-909zM670 1548l172 232h164l-218 -232h-118z" />
<glyph unicode="&#xca;" horiz-adv-x="1161" d="M74 0l202 1450h910l-17 -121h-788l-78 -543h727l-16 -122h-727l-76 -543h788l-16 -121h-909zM473 1548l244 232h135l178 -232h-129l-129 160l-168 -160h-131z" />
<glyph unicode="&#xcb;" horiz-adv-x="1161" d="M74 0l202 1450h910l-17 -121h-788l-78 -543h727l-16 -122h-727l-76 -543h788l-16 -121h-909zM494 1663q4 35 32.5 59.5t63.5 24.5t56 -24.5t16 -59.5q-4 -35 -33 -59.5t-64 -24.5t-55.5 24.5t-15.5 59.5zM862 1663q4 35 32.5 59.5t63.5 24.5t56 -24.5t16 -59.5 q-4 -35 -32.5 -59.5t-63.5 -24.5t-56 24.5t-16 59.5z" />
<glyph unicode="&#xcc;" horiz-adv-x="442" d="M74 0l202 1450h121l-202 -1450h-121zM139 1780h164l113 -232h-119z" />
<glyph unicode="&#xcd;" horiz-adv-x="442" d="M74 0l202 1450h121l-202 -1450h-121zM276 1548l173 232h163l-217 -232h-119z" />
<glyph unicode="&#xce;" horiz-adv-x="442" d="M74 0l202 1450h121l-202 -1450h-121zM121 1548l203 232h131l110 -232h-119l-67 160l-127 -160h-131z" />
<glyph unicode="&#xcf;" horiz-adv-x="442" d="M74 0l202 1450h121l-202 -1450h-121zM162 1663q4 35 32.5 59.5t63.5 24.5t56 -24.5t16 -59.5q-4 -35 -33 -59.5t-64 -24.5t-55.5 24.5t-15.5 59.5zM408 1663q4 35 32.5 59.5t63.5 24.5t55.5 -24.5t15.5 -59.5q-4 -35 -32.5 -59.5t-63.5 -24.5t-55.5 24.5t-15.5 59.5z" />
<glyph unicode="&#xd0;" horiz-adv-x="1316" d="M43 674l14 96h129l97 680h483q106 0 196.5 -25t161.5 -74.5t105.5 -133t19.5 -191.5l-86 -604q-12 -86 -52 -157.5t-98.5 -119.5t-133 -81.5t-153.5 -48.5t-163 -15h-483l92 674h-129zM217 121h363q82 0 157.5 17.5t141 52t109.5 94t54 137.5l86 604q11 78 -16 138 t-82.5 95t-126.5 52.5t-153 17.5h-363l-80 -559h318l-15 -96h-317z" />
<glyph unicode="&#xd1;" horiz-adv-x="1409" d="M74 0l202 1450h148l635 -1317l184 1317h121l-203 -1450h-180l-610 1264l-176 -1264h-121zM580 1626q26 73 77.5 113.5t118.5 40.5q29 0 58 -15.5t49 -34t46 -34t48 -15.5q58 0 92 76l74 -31q-33 -70 -82 -109.5t-105 -39.5q-32 0 -61.5 15.5t-48.5 33.5t-45.5 33.5 t-52.5 15.5q-50 0 -93 -78z" />
<glyph unicode="&#xd2;" horiz-adv-x="1382" d="M90 426l84 598q15 107 76 194t150.5 141t195 82.5t215.5 28.5q111 0 208 -28.5t171.5 -82.5t111 -141t21.5 -194l-84 -598q-15 -107 -76 -194t-150.5 -141t-195 -82.5t-215.5 -28.5t-207 28.5t-171.5 82.5t-111.5 141t-22 194zM211 426q-11 -78 18.5 -142t88.5 -103 t136 -60t164 -21q117 0 222.5 35t184 111t93.5 180l84 598q12 83 -18 147t-90.5 102t-137.5 57.5t-165 19.5q-87 0 -168.5 -20t-151.5 -58.5t-117.5 -102.5t-58.5 -145zM612 1780h164l113 -232h-119z" />
<glyph unicode="&#xd3;" horiz-adv-x="1382" d="M90 426l84 598q15 107 76 194t150.5 141t195 82.5t215.5 28.5q111 0 208 -28.5t171.5 -82.5t111 -141t21.5 -194l-84 -598q-15 -107 -76 -194t-150.5 -141t-195 -82.5t-215.5 -28.5t-207 28.5t-171.5 82.5t-111.5 141t-22 194zM211 426q-11 -78 18.5 -142t88.5 -103 t136 -60t164 -21q117 0 222.5 35t184 111t93.5 180l84 598q12 83 -18 147t-90.5 102t-137.5 57.5t-165 19.5q-87 0 -168.5 -20t-151.5 -58.5t-117.5 -102.5t-58.5 -145zM750 1548l172 232h163l-217 -232h-118z" />
<glyph unicode="&#xd4;" horiz-adv-x="1382" d="M90 426l84 598q15 107 76 194t150.5 141t195 82.5t215.5 28.5q111 0 208 -28.5t171.5 -82.5t111 -141t21.5 -194l-84 -598q-15 -107 -76 -194t-150.5 -141t-195 -82.5t-215.5 -28.5t-207 28.5t-171.5 82.5t-111.5 141t-22 194zM211 426q-11 -78 18.5 -142t88.5 -103 t136 -60t164 -21q117 0 222.5 35t184 111t93.5 180l84 598q12 83 -18 147t-90.5 102t-137.5 57.5t-165 19.5q-87 0 -168.5 -20t-151.5 -58.5t-117.5 -102.5t-58.5 -145zM553 1548l244 232h135l178 -232h-129l-129 160l-168 -160h-131z" />
<glyph unicode="&#xd5;" horiz-adv-x="1382" d="M90 426l84 598q15 107 76 194t150.5 141t195 82.5t215.5 28.5q111 0 208 -28.5t171.5 -82.5t111 -141t21.5 -194l-84 -598q-15 -107 -76 -194t-150.5 -141t-195 -82.5t-215.5 -28.5t-207 28.5t-171.5 82.5t-111.5 141t-22 194zM211 426q-11 -78 18.5 -142t88.5 -103 t136 -60t164 -21q117 0 222.5 35t184 111t93.5 180l84 598q12 83 -18 147t-90.5 102t-137.5 57.5t-165 19.5q-87 0 -168.5 -20t-151.5 -58.5t-117.5 -102.5t-58.5 -145zM569 1626q26 72 78 113t119 41q29 0 58 -15.5t49 -34t46 -34t48 -15.5q58 0 92 76l74 -31 q-33 -70 -82 -109.5t-105 -39.5q-40 0 -75.5 24.5t-68.5 49t-65 24.5q-49 0 -92 -78z" />
<glyph unicode="&#xd6;" horiz-adv-x="1382" d="M90 426l84 598q15 107 76 194t150.5 141t195 82.5t215.5 28.5q111 0 208 -28.5t171.5 -82.5t111 -141t21.5 -194l-84 -598q-15 -107 -76 -194t-150.5 -141t-195 -82.5t-215.5 -28.5t-207 28.5t-171.5 82.5t-111.5 141t-22 194zM211 426q-11 -78 18.5 -142t88.5 -103 t136 -60t164 -21q117 0 222.5 35t184 111t93.5 180l84 598q12 83 -18 147t-90.5 102t-137.5 57.5t-165 19.5q-87 0 -168.5 -20t-151.5 -58.5t-117.5 -102.5t-58.5 -145zM573 1663q4 35 33 59.5t64 24.5t55.5 -24.5t15.5 -59.5q-4 -35 -32.5 -59.5t-63.5 -24.5t-56 24.5 t-16 59.5zM942 1663q4 35 32.5 59.5t63.5 24.5t56 -24.5t16 -59.5q-4 -35 -32.5 -59.5t-63.5 -24.5t-56 24.5t-16 59.5z" />
<glyph unicode="&#xd7;" horiz-adv-x="1026" d="M55 291l375 327l-287 336l95 82l286 -338l377 330l68 -82l-371 -325l276 -322l-94 -84l-278 324l-377 -332z" />
<glyph unicode="&#xd8;" horiz-adv-x="1382" d="M90 426l84 598q15 107 76 194t150.5 141t195 82.5t215.5 28.5q147 0 266 -49l99 158l84 -47l-97 -154q188 -123 160 -354l-84 -598q-15 -107 -76 -194t-150.5 -141t-195 -82.5t-215.5 -28.5q-152 0 -276 53l-103 -166l-86 45l103 166q-182 127 -150 348zM211 426 q-20 -151 98 -238l703 1127q-100 35 -221 35q-87 0 -168.5 -20t-151.5 -58.5t-117.5 -102.5t-58.5 -145zM393 141q100 -41 225 -41q117 0 222.5 35t184 111t93.5 180l84 598q23 162 -106 246z" />
<glyph unicode="&#xd9;" horiz-adv-x="1386" d="M123 432l141 1018h121l-141 -1018q-11 -79 15.5 -143.5t81 -105t125.5 -62t152 -21.5t159.5 21.5t144.5 62t111.5 105t56.5 143.5l141 1018h121l-142 -1018q-15 -109 -73.5 -197t-144 -142.5t-186 -83.5t-204.5 -29t-195.5 29t-161 83.5t-103.5 142.5t-19 197zM610 1780 h164l113 -232h-119z" />
<glyph unicode="&#xda;" horiz-adv-x="1386" d="M123 432l141 1018h121l-141 -1018q-11 -79 15.5 -143.5t81 -105t125.5 -62t152 -21.5t159.5 21.5t144.5 62t111.5 105t56.5 143.5l141 1018h121l-142 -1018q-15 -109 -73.5 -197t-144 -142.5t-186 -83.5t-204.5 -29t-195.5 29t-161 83.5t-103.5 142.5t-19 197zM748 1548 l172 232h163l-217 -232h-118z" />
<glyph unicode="&#xdb;" horiz-adv-x="1386" d="M123 432l141 1018h121l-141 -1018q-11 -79 15.5 -143.5t81 -105t125.5 -62t152 -21.5t159.5 21.5t144.5 62t111.5 105t56.5 143.5l141 1018h121l-142 -1018q-15 -109 -73.5 -197t-144 -142.5t-186 -83.5t-204.5 -29t-195.5 29t-161 83.5t-103.5 142.5t-19 197zM551 1548 l244 232h135l178 -232h-129l-129 160l-168 -160h-131z" />
<glyph unicode="&#xdc;" horiz-adv-x="1386" d="M123 432l141 1018h121l-141 -1018q-11 -79 15.5 -143.5t81 -105t125.5 -62t152 -21.5t159.5 21.5t144.5 62t111.5 105t56.5 143.5l141 1018h121l-142 -1018q-15 -109 -73.5 -197t-144 -142.5t-186 -83.5t-204.5 -29t-195.5 29t-161 83.5t-103.5 142.5t-19 197zM571 1663 q4 35 33 59.5t64 24.5t55.5 -24.5t15.5 -59.5q-4 -35 -32.5 -59.5t-63.5 -24.5t-56 24.5t-16 59.5zM940 1663q4 35 32.5 59.5t63.5 24.5t56 -24.5t16 -59.5q-4 -35 -32.5 -59.5t-63.5 -24.5t-56 24.5t-16 59.5z" />
<glyph unicode="&#xdd;" horiz-adv-x="1138" d="M121 1450h141l318 -762l528 762h143l-630 -883l-78 -567h-121l78 567zM625 1548l172 232h164l-218 -232h-118z" />
<glyph unicode="&#xde;" horiz-adv-x="1251" d="M74 0l202 1450h121l-37 -268h426q231 0 344 -146q92 -120 76 -289q-17 -169 -133 -297q-140 -157 -361 -174q-25 -2 -50 -2h-429l-38 -274h-121zM250 395h426q191 0 309 127q94 101 101 234q7 134 -79 219.5t-237 85.5h-426z" />
<glyph unicode="&#xdf;" horiz-adv-x="1210" d="M53 -2l158 1122q18 121 98.5 212t188.5 134t225 43q69 0 133 -14.5t118.5 -45t92.5 -74t55 -106t6 -136.5q-14 -104 -68 -191.5t-145 -136.5q225 -81 183 -375q-14 -86 -55 -158.5t-100 -122.5t-132.5 -85t-152.5 -51t-160 -15q-131 4 -213 49l20 129q39 -23 97.5 -38 t111.5 -17q109 -2 205.5 30t168.5 105t87 176q22 158 -67.5 234.5t-254.5 74.5h-188l16 115h189q128 0 224 73t114 204q10 69 -12 121.5t-67.5 82t-101 44t-120.5 14.5q-87 0 -164.5 -27.5t-138 -91.5t-74.5 -156l-158 -1122h-119z" />
<glyph unicode="&#xe0;" horiz-adv-x="1058" d="M70 328l55 403q11 77 43.5 137.5t78 100t105.5 65t122.5 36.5t131.5 11q97 0 194.5 -25t172.5 -63l-137 -993h-103l-2 106q-58 -56 -148.5 -91t-183.5 -35q-73 0 -136 21t-112 62t-71.5 109.5t-9.5 155.5zM186 336q-16 -116 53 -176t181 -60q90 0 180.5 32.5t144.5 84.5 l99 694q-103 56 -244 56q-65 0 -122.5 -12t-108.5 -38.5t-85 -73.5t-42 -110zM408 1411h163l113 -231h-119z" />
<glyph unicode="&#xe1;" horiz-adv-x="1058" d="M70 328l55 403q11 77 43.5 137.5t78 100t105.5 65t122.5 36.5t131.5 11q97 0 194.5 -25t172.5 -63l-137 -993h-103l-2 106q-58 -56 -148.5 -91t-183.5 -35q-73 0 -136 21t-112 62t-71.5 109.5t-9.5 155.5zM186 336q-16 -116 53 -176t181 -60q90 0 180.5 32.5t144.5 84.5 l99 694q-103 56 -244 56q-65 0 -122.5 -12t-108.5 -38.5t-85 -73.5t-42 -110zM545 1180l172 231h164l-217 -231h-119z" />
<glyph unicode="&#xe2;" horiz-adv-x="1058" d="M70 328l55 403q11 77 43.5 137.5t78 100t105.5 65t122.5 36.5t131.5 11q97 0 194.5 -25t172.5 -63l-137 -993h-103l-2 106q-58 -56 -148.5 -91t-183.5 -35q-73 0 -136 21t-112 62t-71.5 109.5t-9.5 155.5zM186 336q-16 -116 53 -176t181 -60q90 0 180.5 32.5t144.5 84.5 l99 694q-103 56 -244 56q-65 0 -122.5 -12t-108.5 -38.5t-85 -73.5t-42 -110zM348 1180l244 231h135l178 -231h-129l-129 159l-168 -159h-131z" />
<glyph unicode="&#xe3;" horiz-adv-x="1058" d="M70 328l55 403q11 77 43.5 137.5t78 100t105.5 65t122.5 36.5t131.5 11q97 0 194.5 -25t172.5 -63l-137 -993h-103l-2 106q-58 -56 -148.5 -91t-183.5 -35q-73 0 -136 21t-112 62t-71.5 109.5t-9.5 155.5zM186 336q-16 -116 53 -176t181 -60q90 0 180.5 32.5t144.5 84.5 l99 694q-103 56 -244 56q-65 0 -122.5 -12t-108.5 -38.5t-85 -73.5t-42 -110zM365 1257q26 73 77.5 113.5t118.5 40.5q36 0 72 -24.5t68.5 -49t60.5 -24.5q58 0 92 76l74 -31q-33 -70 -82 -110t-105 -40q-31 0 -61 15.5t-49.5 34t-46 34t-52.5 15.5q-49 0 -92 -78z" />
<glyph unicode="&#xe4;" horiz-adv-x="1058" d="M70 328l55 403q11 77 43.5 137.5t78 100t105.5 65t122.5 36.5t131.5 11q97 0 194.5 -25t172.5 -63l-137 -993h-103l-2 106q-58 -56 -148.5 -91t-183.5 -35q-73 0 -136 21t-112 62t-71.5 109.5t-9.5 155.5zM186 336q-16 -116 53 -176t181 -60q90 0 180.5 32.5t144.5 84.5 l99 694q-103 56 -244 56q-65 0 -122.5 -12t-108.5 -38.5t-85 -73.5t-42 -110zM369 1294q4 35 32.5 59.5t63.5 24.5t56 -24.5t16 -59.5q-4 -35 -33 -59.5t-64 -24.5t-55.5 24.5t-15.5 59.5zM737 1294q4 35 33 59.5t64 24.5t55.5 -24.5t15.5 -59.5q-4 -35 -32.5 -59.5 t-63.5 -24.5t-56 24.5t-16 59.5z" />
<glyph unicode="&#xe5;" horiz-adv-x="1058" d="M70 328l55 403q11 77 43.5 137.5t78 100t105.5 65t122.5 36.5t131.5 11q97 0 194.5 -25t172.5 -63l-137 -993h-103l-2 106q-58 -56 -148.5 -91t-183.5 -35q-73 0 -136 21t-112 62t-71.5 109.5t-9.5 155.5zM186 336q-16 -116 53 -176t181 -60q90 0 180.5 32.5t144.5 84.5 l99 694q-103 56 -244 56q-65 0 -122.5 -12t-108.5 -38.5t-85 -73.5t-42 -110zM438 1354q11 78 75.5 136t143.5 58q78 0 125.5 -59t36.5 -137q-11 -76 -75.5 -134.5t-141.5 -58.5q-79 0 -127 58t-37 137zM528 1352q-6 -43 19.5 -73t66.5 -30q42 0 75.5 31t39.5 74t-19 73.5 t-67 30.5t-75.5 -31.5t-39.5 -74.5z" />
<glyph unicode="&#xe6;" horiz-adv-x="1685" d="M68 328l55 405q13 93 57.5 162.5t111.5 109t143 58t161 18.5q99 0 197.5 -28.5t171.5 -71.5q129 100 307 100q77 0 144.5 -22.5t118 -64.5t75 -109.5t12.5 -151.5q-12 -87 -54.5 -154.5t-102.5 -107t-134.5 -62t-151.5 -23.5t-151.5 14.5t-136.5 45.5l-19 -133 q-8 -73 29.5 -123t96.5 -70t132 -20q92 0 171 34.5t120 103.5l95 -52q-59 -99 -170 -152.5t-232 -53.5q-173 0 -274 96l-9 -76h-100l-2 106q-58 -56 -148.5 -91t-183.5 -35q-73 0 -136 21t-111.5 62t-71 109.5t-10.5 155.5zM184 328q-16 -115 52.5 -171.5t181.5 -56.5 q90 0 180.5 32.5t144.5 84.5l72 508q12 86 57 156q-51 38 -126 62t-152 24q-88 0 -161 -22.5t-127.5 -76.5t-65.5 -133zM905 553q58 -24 127 -39.5t148.5 -16t146.5 18.5t117 74.5t63 142.5q16 115 -59 174.5t-193 59.5q-120 0 -213.5 -61t-111.5 -179z" />
<glyph unicode="&#xe7;" horiz-adv-x="944" d="M63 324l58 413q12 83 56 150.5t107 108.5t137 63t150 22q115 0 206.5 -46.5t129.5 -135.5l-104 -61q-25 63 -92.5 96t-155.5 33q-75 0 -141.5 -23.5t-116.5 -76.5t-61 -126l-58 -415q-16 -109 60.5 -167.5t193.5 -58.5q101 0 184.5 39t116.5 119l98 -47 q-52 -104 -153.5 -162.5t-222.5 -66.5l-54 -123q76 0 122.5 -46.5t33.5 -129.5q-9 -63 -51.5 -106t-94 -60t-106.5 -17q-96 0 -176 41l37 76q63 -35 143 -35q55 0 99.5 28.5t52.5 80.5q6 35 -7 58t-36 31t-49.5 6.5t-49.5 -11.5l-24 26l84 181q-71 5 -131.5 28.5t-106.5 65 t-67.5 105.5t-10.5 143z" />
<glyph unicode="&#xe8;" horiz-adv-x="991" d="M66 326l55 399q13 87 57.5 156.5t108.5 112t138.5 65t152.5 22.5q77 0 144.5 -22t118 -64t75 -110t12.5 -152q-12 -87 -54.5 -154.5t-102.5 -107t-134.5 -62t-151.5 -23.5t-151.5 14.5t-136.5 45.5l-17 -120q-8 -58 10.5 -103t57 -71t86.5 -39t102 -13q92 0 171 34.5 t120 103.5l94 -52q-59 -99 -169.5 -152.5t-231.5 -53.5q-77 0 -145 22t-119.5 64t-76.5 109t-13 151zM211 553q58 -24 127 -39.5t148.5 -16t146.5 18.5t117 74.5t63 142.5q16 115 -59 174.5t-193 59.5q-117 0 -212 -66.5t-113 -185.5zM379 1411h164l112 -231h-118z" />
<glyph unicode="&#xe9;" horiz-adv-x="991" d="M66 326l55 399q13 87 57.5 156.5t108.5 112t138.5 65t152.5 22.5q77 0 144.5 -22t118 -64t75 -110t12.5 -152q-12 -87 -54.5 -154.5t-102.5 -107t-134.5 -62t-151.5 -23.5t-151.5 14.5t-136.5 45.5l-17 -120q-8 -58 10.5 -103t57 -71t86.5 -39t102 -13q92 0 171 34.5 t120 103.5l94 -52q-59 -99 -169.5 -152.5t-231.5 -53.5q-77 0 -145 22t-119.5 64t-76.5 109t-13 151zM211 553q58 -24 127 -39.5t148.5 -16t146.5 18.5t117 74.5t63 142.5q16 115 -59 174.5t-193 59.5q-117 0 -212 -66.5t-113 -185.5zM516 1180l172 231h164l-217 -231h-119z " />
<glyph unicode="&#xea;" horiz-adv-x="991" d="M66 326l55 399q13 87 57.5 156.5t108.5 112t138.5 65t152.5 22.5q77 0 144.5 -22t118 -64t75 -110t12.5 -152q-12 -87 -54.5 -154.5t-102.5 -107t-134.5 -62t-151.5 -23.5t-151.5 14.5t-136.5 45.5l-17 -120q-8 -58 10.5 -103t57 -71t86.5 -39t102 -13q92 0 171 34.5 t120 103.5l94 -52q-59 -99 -169.5 -152.5t-231.5 -53.5q-77 0 -145 22t-119.5 64t-76.5 109t-13 151zM211 553q58 -24 127 -39.5t148.5 -16t146.5 18.5t117 74.5t63 142.5q16 115 -59 174.5t-193 59.5q-117 0 -212 -66.5t-113 -185.5zM319 1180l244 231h135l179 -231h-129 l-130 159l-167 -159h-132z" />
<glyph unicode="&#xeb;" horiz-adv-x="991" d="M66 326l55 399q13 87 57.5 156.5t108.5 112t138.5 65t152.5 22.5q77 0 144.5 -22t118 -64t75 -110t12.5 -152q-12 -87 -54.5 -154.5t-102.5 -107t-134.5 -62t-151.5 -23.5t-151.5 14.5t-136.5 45.5l-17 -120q-8 -58 10.5 -103t57 -71t86.5 -39t102 -13q92 0 171 34.5 t120 103.5l94 -52q-59 -99 -169.5 -152.5t-231.5 -53.5q-77 0 -145 22t-119.5 64t-76.5 109t-13 151zM211 553q58 -24 127 -39.5t148.5 -16t146.5 18.5t117 74.5t63 142.5q16 115 -59 174.5t-193 59.5q-117 0 -212 -66.5t-113 -185.5zM360 1274q4 35 33 59.5t64 24.5 t55.5 -24.5t15.5 -59.5q-4 -35 -32.5 -59.5t-63.5 -24.5t-56 24.5t-16 59.5zM688 1274q4 35 32.5 59.5t63.5 24.5t56 -24.5t16 -59.5q-4 -35 -32.5 -59.5t-63.5 -24.5t-56 24.5t-16 59.5z" />
<glyph unicode="&#xec;" horiz-adv-x="397" d="M53 0l150 1061h114l-149 -1061h-115zM61 1391h164l113 -232h-119z" />
<glyph unicode="&#xed;" horiz-adv-x="397" d="M53 0l150 1061h114l-149 -1061h-115zM199 1159l172 232h164l-218 -232h-118z" />
<glyph unicode="&#xee;" horiz-adv-x="397" d="M53 0l150 1061h114l-149 -1061h-115zM63 1159l183 232h131l92 -232h-111l-53 160l-121 -160h-121z" />
<glyph unicode="&#xef;" horiz-adv-x="397" d="M53 0l150 1061h114l-149 -1061h-115zM84 1274q4 35 32.5 59.5t63.5 24.5t56 -24.5t16 -59.5q-4 -35 -32.5 -59.5t-63.5 -24.5t-56 24.5t-16 59.5zM330 1274q4 35 32.5 59.5t63.5 24.5t56 -24.5t16 -59.5q-4 -35 -33 -59.5t-64 -24.5t-55.5 24.5t-15.5 59.5z" />
<glyph unicode="&#xf0;" horiz-adv-x="1038" d="M66 328l43 311q24 158 155 250t291 90q155 0 274 -64l31 215q11 79 -27.5 131.5t-111.5 77.5l-74 -163l-88 32l72 150q-88 6 -172.5 -21.5t-134.5 -81.5l-68 72q77 74 192.5 110t229.5 27l63 138l86 -31l-55 -125q105 -33 162 -113.5t39 -202.5l-150 -1060l-116 -35 q-171 -47 -299 -47q-101 1 -182.5 38t-128 115.5t-31.5 186.5zM178 326q-16 -108 57.5 -167t188.5 -59q145 0 301 62q54 397 90 645q-127 59 -280 59q-73 -1 -138 -24.5t-115 -76t-61 -124.5v-2l-43 -311v-2z" />
<glyph unicode="&#xf1;" horiz-adv-x="1071" d="M49 0l139 997q256 84 418 84q76 -2 142 -24t116.5 -63t74.5 -107t13 -148l-102 -739h-115l103 739q16 109 -60 168.5t-188 59.5q-145 0 -301 -62l-125 -905h-115zM365 1257q26 73 77.5 113.5t118.5 40.5q36 0 72 -24.5t68.5 -49t60.5 -24.5q58 0 92 76l74 -31 q-33 -70 -82 -110t-105 -40q-31 0 -61 15.5t-49.5 34t-46 34t-52.5 15.5q-49 0 -92 -78z" />
<glyph unicode="&#xf2;" horiz-adv-x="1017" d="M63 324l60 411q11 83 54.5 150.5t107 109.5t137.5 64t151 22t145 -22t119.5 -64t76.5 -109t14 -151l-60 -411q-12 -84 -55.5 -151t-106.5 -108t-137 -63t-151 -22t-145 22t-120 63t-77 108.5t-13 150.5zM178 332q-8 -58 10.5 -104t57 -73t86.5 -41t102 -14q73 0 139 23 t118 77.5t63 131.5l59 405q8 58 -11 103.5t-57.5 72.5t-86.5 40.5t-101 13.5q-74 0 -139.5 -22.5t-117 -76.5t-62.5 -131zM375 1411h164l112 -231h-119z" />
<glyph unicode="&#xf3;" horiz-adv-x="1017" d="M63 324l60 411q11 83 54.5 150.5t107 109.5t137.5 64t151 22t145 -22t119.5 -64t76.5 -109t14 -151l-60 -411q-12 -84 -55.5 -151t-106.5 -108t-137 -63t-151 -22t-145 22t-120 63t-77 108.5t-13 150.5zM178 332q-8 -58 10.5 -104t57 -73t86.5 -41t102 -14q73 0 139 23 t118 77.5t63 131.5l59 405q8 58 -11 103.5t-57.5 72.5t-86.5 40.5t-101 13.5q-74 0 -139.5 -22.5t-117 -76.5t-62.5 -131zM512 1180l172 231h164l-217 -231h-119z" />
<glyph unicode="&#xf4;" horiz-adv-x="1017" d="M63 324l60 411q11 83 54.5 150.5t107 109.5t137.5 64t151 22t145 -22t119.5 -64t76.5 -109t14 -151l-60 -411q-12 -84 -55.5 -151t-106.5 -108t-137 -63t-151 -22t-145 22t-120 63t-77 108.5t-13 150.5zM178 332q-8 -58 10.5 -104t57 -73t86.5 -41t102 -14q73 0 139 23 t118 77.5t63 131.5l59 405q8 58 -11 103.5t-57.5 72.5t-86.5 40.5t-101 13.5q-74 0 -139.5 -22.5t-117 -76.5t-62.5 -131zM315 1180l244 231h135l178 -231h-129l-129 159l-168 -159h-131z" />
<glyph unicode="&#xf5;" horiz-adv-x="1017" d="M63 324l60 411q11 83 54.5 150.5t107 109.5t137.5 64t151 22t145 -22t119.5 -64t76.5 -109t14 -151l-60 -411q-12 -84 -55.5 -151t-106.5 -108t-137 -63t-151 -22t-145 22t-120 63t-77 108.5t-13 150.5zM178 332q-8 -58 10.5 -104t57 -73t86.5 -41t102 -14q73 0 139 23 t118 77.5t63 131.5l59 405q8 58 -11 103.5t-57.5 72.5t-86.5 40.5t-101 13.5q-74 0 -139.5 -22.5t-117 -76.5t-62.5 -131zM332 1237q26 73 77.5 113.5t118.5 40.5q29 0 58 -15.5t49 -34t46 -34t48 -15.5q58 0 92 76l74 -31q-33 -70 -81.5 -109.5t-104.5 -39.5 q-40 0 -75.5 24.5t-68.5 49t-65 24.5q-49 0 -92 -78z" />
<glyph unicode="&#xf6;" horiz-adv-x="1017" d="M63 324l60 411q11 83 54.5 150.5t107 109.5t137.5 64t151 22t145 -22t119.5 -64t76.5 -109t14 -151l-60 -411q-12 -84 -55.5 -151t-106.5 -108t-137 -63t-151 -22t-145 22t-120 63t-77 108.5t-13 150.5zM178 332q-8 -58 10.5 -104t57 -73t86.5 -41t102 -14q73 0 139 23 t118 77.5t63 131.5l59 405q8 58 -11 103.5t-57.5 72.5t-86.5 40.5t-101 13.5q-74 0 -139.5 -22.5t-117 -76.5t-62.5 -131zM356 1274q4 35 33 59.5t64 24.5t55.5 -24.5t15.5 -59.5q-4 -35 -32.5 -59.5t-63.5 -24.5t-56 24.5t-16 59.5zM684 1274q4 35 32.5 59.5t63.5 24.5 t56 -24.5t16 -59.5q-4 -35 -32.5 -59.5t-63.5 -24.5t-56 24.5t-16 59.5z" />
<glyph unicode="&#xf7;" horiz-adv-x="1110" d="M111 616l16 123h889l-17 -123h-888zM424 350q6 44 40.5 73.5t78.5 31.5q42 0 68.5 -31t21.5 -74q-6 -43 -42 -73.5t-79 -30.5t-68.5 30.5t-19.5 73.5zM512 981q6 43 41 73.5t78 30.5t69.5 -30.5t20.5 -73.5t-41 -73.5t-78 -30.5t-69.5 30.5t-20.5 73.5z" />
<glyph unicode="&#xf8;" horiz-adv-x="1017" d="M63 324l60 411q11 83 54.5 150.5t107 109.5t137.5 64t151 22q76 0 150 -22l70 131l81 -41l-69 -129q69 -45 102.5 -117t20.5 -168l-60 -411q-12 -84 -55.5 -151t-106.5 -108t-137 -63t-151 -22q-82 0 -156 24l-72 -133l-79 35l73 137q-68 43 -101 115t-20 166zM178 332 q-14 -111 66 -174l424 794q-52 15 -111 15q-74 0 -139.5 -22.5t-117 -76.5t-62.5 -131zM322 117q60 -17 112 -17q73 0 139 23t118 77.5t63 131.5l59 405q14 112 -65 174z" />
<glyph unicode="&#xf9;" horiz-adv-x="1071" d="M92 324l103 737h114l-104 -742q-14 -106 60 -164.5t188 -60.5q140 0 301 64l127 903h114l-139 -998l-121 -34q-174 -49 -299 -49q-75 1 -141 23.5t-116 64t-74 108t-13 148.5zM397 1391h164l113 -232h-119z" />
<glyph unicode="&#xfa;" horiz-adv-x="1071" d="M92 324l103 737h114l-104 -742q-14 -106 60 -164.5t188 -60.5q140 0 301 64l127 903h114l-139 -998l-121 -34q-174 -49 -299 -49q-75 1 -141 23.5t-116 64t-74 108t-13 148.5zM535 1159l172 232h163l-217 -232h-118z" />
<glyph unicode="&#xfb;" horiz-adv-x="1071" d="M92 324l103 737h114l-104 -742q-14 -106 60 -164.5t188 -60.5q140 0 301 64l127 903h114l-139 -998l-121 -34q-174 -49 -299 -49q-75 1 -141 23.5t-116 64t-74 108t-13 148.5zM338 1159l244 232h135l178 -232h-129l-129 160l-168 -160h-131z" />
<glyph unicode="&#xfc;" horiz-adv-x="1071" d="M92 324l103 737h114l-104 -742q-14 -106 60 -164.5t188 -60.5q140 0 301 64l127 903h114l-139 -998l-121 -34q-174 -49 -299 -49q-75 1 -141 23.5t-116 64t-74 108t-13 148.5zM358 1274q4 35 33 59.5t64 24.5t55.5 -24.5t15.5 -59.5q-4 -35 -32.5 -59.5t-63.5 -24.5 t-56 24.5t-16 59.5zM727 1274q4 35 32.5 59.5t63.5 24.5t56 -24.5t16 -59.5q-4 -35 -32.5 -59.5t-63.5 -24.5t-56 24.5t-16 59.5z" />
<glyph unicode="&#xfd;" horiz-adv-x="1097" d="M51 -303l88 72q75 -102 256 -105q80 -1 152.5 23.5t126.5 81t65 135.5l21 149q-122 -71 -305 -71q-107 0 -193.5 39.5t-135.5 122t-34 192.5l101 725h118l-102 -729q-16 -111 62 -174.5t196 -63.5q158 0 309 70l125 897h117l-162 -1157q-13 -87 -56.5 -155.5t-107 -110 t-137.5 -63t-154 -21.5q-107 0 -201.5 37t-148.5 106zM545 1159l172 232h164l-217 -232h-119z" />
<glyph unicode="&#xfe;" horiz-adv-x="1058" d="M-2 -401l260 1849h115l-56 -404q145 37 299 37q76 -1 143 -22.5t118.5 -62.5t76 -107.5t13.5 -149.5l-60 -415q-16 -107 -86.5 -187t-166 -118.5t-199.5 -38.5q-145 0 -281 65l-61 -446h-115zM190 160q132 -60 285 -60q116 0 209.5 58.5t106.5 165.5l59 419 q16 107 -58.5 165.5t-191.5 58.5q-193 0 -299 -35z" />
<glyph unicode="&#xff;" horiz-adv-x="1097" d="M51 -303l88 72q75 -102 256 -105q80 -1 152.5 23.5t126.5 81t65 135.5l21 149q-122 -71 -305 -71q-107 0 -193.5 39.5t-135.5 122t-34 192.5l101 725h118l-102 -729q-16 -111 62 -174.5t196 -63.5q158 0 309 70l125 897h117l-162 -1157q-13 -87 -56.5 -155.5t-107 -110 t-137.5 -63t-154 -21.5q-107 0 -201.5 37t-148.5 106zM369 1274q4 35 32.5 59.5t63.5 24.5t56 -24.5t16 -59.5q-4 -35 -33 -59.5t-64 -24.5t-55.5 24.5t-15.5 59.5zM737 1274q4 35 33 59.5t64 24.5t55.5 -24.5t15.5 -59.5q-4 -35 -32.5 -59.5t-63.5 -24.5t-56 24.5t-16 59.5 z" />
<glyph unicode="&#x152;" horiz-adv-x="1888" d="M88 424l86 602q16 107 76.5 193.5t149 140t192.5 82t213 28.5q182 0 276 -67l6 47h826l-17 -121h-704l-78 -547h641l-16 -120h-641l-76 -541h704l-18 -123h-825l6 35q-114 -57 -303 -53q-108 2 -203 31t-167 82.5t-107.5 139.5t-20.5 191zM209 424q-11 -78 18.5 -141.5 t88.5 -102.5t135.5 -59.5t162.5 -20.5q171 0 291 60l160 1132q-111 61 -274 58q-87 0 -168.5 -19.5t-151 -57.5t-117 -102t-59.5 -145z" />
<glyph unicode="&#x153;" horiz-adv-x="1681" d="M66 324l59 419q11 83 54.5 150.5t107 109.5t137.5 64t151 23q108 -2 201 -49.5t123 -127.5q44 56 109.5 95.5t136 54.5t143.5 14.5t136.5 -26t111 -66t70.5 -106.5t12 -146q-12 -87 -54.5 -154.5t-102.5 -107t-134.5 -62t-151.5 -23.5t-151.5 14.5t-136.5 45.5l-17 -122 l-2 -11q-6 -55 14 -98.5t58 -68.5t85.5 -37.5t100.5 -12.5q91 0 170.5 36.5t120.5 105.5l94 -52q-59 -99 -169 -151.5t-232 -52.5q-110 0 -198.5 44t-123.5 134q-106 -179 -368 -183q-77 1 -145 23t-119.5 64t-76.5 109.5t-13 150.5zM180 324q-8 -58 10.5 -104t57 -73 t86.5 -41t102 -14q73 0 139 23t118 77.5t63 131.5l59 419q8 58 -11 103.5t-57.5 72.5t-86.5 40.5t-101 13.5q-74 0 -139.5 -22.5t-117 -76.5t-62.5 -131zM901 553q58 -24 127 -39.5t148.5 -16t146.5 18.5t117 74.5t63 142.5q19 132 -84 201q-88 59 -215 43 q-132 -17 -212 -105q-54 -62 -66 -145z" />
<glyph unicode="&#x178;" horiz-adv-x="1138" d="M121 1450h141l318 -762l528 762h143l-630 -883l-78 -567h-121l78 567zM449 1663q4 35 32.5 59.5t63.5 24.5t55.5 -24.5t15.5 -59.5q-4 -35 -32.5 -59.5t-63.5 -24.5t-55.5 24.5t-15.5 59.5zM817 1663q4 35 32.5 59.5t63.5 24.5t56 -24.5t16 -59.5q-4 -35 -32.5 -59.5 t-63.5 -24.5t-56 24.5t-16 59.5z" />
<glyph unicode="&#x2c6;" horiz-adv-x="536" d="M0 1548l244 232h135l178 -232h-129l-129 160l-168 -160h-131z" />
<glyph unicode="&#x2dc;" horiz-adv-x="555" d="M-33 1626q26 72 78 113t119 41q29 0 58 -15.5t49 -34t46 -34t48 -15.5q58 0 92 76l73 -31q-33 -70 -81.5 -109.5t-104.5 -39.5q-40 0 -75.5 24.5t-68.5 49t-65 24.5q-49 0 -92 -78z" />
<glyph unicode="&#x2000;" horiz-adv-x="904" />
<glyph unicode="&#x2001;" horiz-adv-x="1808" />
<glyph unicode="&#x2002;" horiz-adv-x="904" />
<glyph unicode="&#x2003;" horiz-adv-x="1808" />
<glyph unicode="&#x2004;" horiz-adv-x="602" />
<glyph unicode="&#x2005;" horiz-adv-x="452" />
<glyph unicode="&#x2006;" horiz-adv-x="301" />
<glyph unicode="&#x2007;" horiz-adv-x="301" />
<glyph unicode="&#x2008;" horiz-adv-x="226" />
<glyph unicode="&#x2009;" horiz-adv-x="361" />
<glyph unicode="&#x200a;" horiz-adv-x="100" />
<glyph unicode="&#x2010;" horiz-adv-x="759" d="M117 555l16 119h506l-16 -119h-506z" />
<glyph unicode="&#x2011;" horiz-adv-x="759" d="M117 555l16 119h506l-16 -119h-506z" />
<glyph unicode="&#x2012;" horiz-adv-x="759" d="M117 555l16 119h506l-16 -119h-506z" />
<glyph unicode="&#x2013;" horiz-adv-x="1204" d="M117 555l16 117h950l-16 -117h-950z" />
<glyph unicode="&#x2014;" horiz-adv-x="2088" d="M117 555l16 117h1835l-16 -117h-1835z" />
<glyph unicode="&#x2018;" horiz-adv-x="452" d="M145 983l222 467h122l-196 -467h-148z" />
<glyph unicode="&#x2019;" horiz-adv-x="448" d="M147 983l195 467h150l-224 -467h-121z" />
<glyph unicode="&#x201a;" horiz-adv-x="430" d="M-96 -283l190 437h150l-219 -437h-121z" />
<glyph unicode="&#x201c;" horiz-adv-x="763" d="M145 983l224 467h120l-194 -467h-150zM459 983l223 467h121l-195 -467h-149z" />
<glyph unicode="&#x201d;" horiz-adv-x="753" d="M147 983l195 467h150l-224 -467h-121zM455 983l194 467h150l-224 -467h-120z" />
<glyph unicode="&#x201e;" horiz-adv-x="765" d="M-96 -283l188 428h150l-217 -428h-121zM240 -283l188 428h150l-218 -428h-120z" />
<glyph unicode="&#x2022;" horiz-adv-x="858" d="M145 725q17 123 117 210t223 87t197 -87t57 -210t-116 -210t-222 -87t-198 87t-58 210z" />
<glyph unicode="&#x2026;" horiz-adv-x="1267" d="M35 86q6 41 38.5 69.5t73.5 28.5t65.5 -28.5t18.5 -69.5q-4 -41 -36.5 -69.5t-73.5 -28.5t-66 28.5t-20 69.5zM463 86q6 41 38.5 69.5t73.5 28.5t65.5 -28.5t18.5 -69.5q-4 -41 -36.5 -69.5t-73.5 -28.5t-66 28.5t-20 69.5zM889 86q6 41 38.5 69.5t73.5 28.5t65.5 -28.5 t18.5 -69.5q-4 -41 -36.5 -69.5t-73.5 -28.5t-66 28.5t-20 69.5z" />
<glyph unicode="&#x202f;" horiz-adv-x="361" />
<glyph unicode="&#x2039;" horiz-adv-x="550" d="M70 604l338 416l90 -59l-293 -357l194 -356l-108 -60z" />
<glyph unicode="&#x203a;" horiz-adv-x="550" d="M45 248l293 356l-195 357l107 59l223 -416l-340 -416z" />
<glyph unicode="&#x205f;" horiz-adv-x="452" />
<glyph unicode="&#x20ac;" horiz-adv-x="1247" d="M55 578l33 90h115l16 110h-129l33 92h108l23 156q12 86 50 159t93 125t124 88.5t143.5 54t150.5 17.5q96 0 180.5 -28t150.5 -88.5t95 -145.5l-115 -55q-34 96 -123.5 146.5t-203.5 50.5q-98 0 -188 -36t-157 -111.5t-81 -176.5l-23 -156h555l-33 -92h-534l-16 -110h557 l-31 -90h-539l-22 -154q-11 -78 12 -141t70.5 -102t111 -60t135.5 -21q116 0 222.5 51t167.5 146l100 -53q-80 -127 -218.5 -195.5t-289.5 -68.5q-75 0 -144 17.5t-127 53.5t-98 88t-57 125.5t-4 159.5l22 154h-135z" />
<glyph unicode="&#x2122;" horiz-adv-x="1705" d="M158 1350l14 100h639l-14 -100h-267l-98 -699h-106l98 699h-266zM799 651l112 799h123l180 -571l340 571h125l-112 -799h-109l96 623l-313 -526h-90l-164 518l-82 -615h-106z" />
<glyph unicode="&#x25fc;" horiz-adv-x="1064" d="M0 0v1065h1065v-1065h-1065z" />
</font>
</defs>
</svg>
